<svg xmlns="http://www.w3.org/2000/svg" width="1641" height="634" fill="none"><path fill="#1D1D1D" fill-rule="evenodd" d="M1213.05 560.537a63.496 63.496 0 0 0 7.35 8.789l.43.434.45.422c12.81 12.105 28.81 17.518 44.82 17.518 14.79 0 29.55-4.614 41.82-14.85 12.27 10.236 27.04 14.85 41.82 14.85 16.02 0 32.01-5.413 44.83-17.518l.44-.422.44-.434c13.29-13.288 18.71-30.135 18.71-46.386v-92.48c0-24.794-5.63-50.515-22.92-71.092-17.28-20.807-41.13-31.068-67.34-31.068-11.51 0-22.86 2.079-33.66 6.449-7.61-3.153-15.77-4.749-24.14-4.749-18.26 0-34.99 7.405-47.26 21.035-6.44 7.155-10.97 15.204-13.75 23.697 7.05 3.095 10.74 10.338 11.07 21.728.02.557.03 1.123.03 1.7V536.2c0 9.307-1.05 17.419-3.14 24.337Zm65.63-183.117c-3.04-2.469-6.47-3.904-10.31-4.304a21.97 21.97 0 0 0-2.27-.116c-6.12 0-11.22 2.267-15.3 6.8-4.08 4.533-6.12 10.087-6.12 16.66v126.48c0 6.573 2.04 11.9 6.12 15.98 4.08 3.853 9.18 5.78 15.3 5.78 6.12 0 11.22-1.927 15.3-5.78a19.923 19.923 0 0 0 4.51-6.835c1.07-2.719 1.61-5.767 1.61-9.145v-86.02c.05-.392.1-.78.16-1.165 1.01-6.722 3.34-12.227 6.98-16.515 3.86-4.533 8.84-6.8 14.96-6.8 1.46 0 2.83.123 4.12.369 2.58.497 4.8 1.494 6.66 2.992 1.36 1.102 2.53 2.475 3.5 4.119 2.39 3.854 3.81 8.749 4.26 14.684.06.755.1 1.527.13 2.316.02.668.03 1.348.03 2.04v83.98c0 3.378.54 6.426 1.62 9.145a20.04 20.04 0 0 0 4.5 6.835c4.08 3.853 9.18 5.78 15.3 5.78 6.12 0 11.22-1.927 15.3-5.78 4.08-4.08 6.12-9.407 6.12-15.98v-92.48c0-18.813-4.31-33.32-12.92-43.52-8.21-9.938-18.99-15.14-32.35-15.606a62.134 62.134 0 0 0-1.99-.034c-5.01 0-9.77.713-14.28 2.139a44.59 44.59 0 0 0-6.46 2.621c-6.35 3.173-11.9 7.48-16.66 12.92-1.36-4.752-3.96-8.6-7.8-11.545-.01-.005-.01-.01-.02-.015Z" clip-rule="evenodd"/><path fill="#1D1D1D" fill-rule="evenodd" d="M1056.16 538.619a93.919 93.919 0 0 0 4.64 8.218c-5.41 9.335-7.63 19.614-7.63 29.143 0 14.516 5.15 33.167 22.55 45.715 12.31 8.946 26.04 11.905 38.13 11.905h54.74c24.1 0 49.57-7.151 68.06-28.284 15.68-17.918 21.34-40.303 22.36-61.611-3.09-.936-5.82-2.53-8.21-4.785a21.082 21.082 0 0 1-2.29-2.72c-2.55-3.64-3.83-8.06-3.83-13.26V396.46c0-6.573 2.04-12.127 6.12-16.66 1.66-1.841 3.48-3.308 5.48-4.401-2.17-7.8-5.82-15.819-11.79-23.19-13.63-16.806-32.61-22.209-48.7-22.209-6.82 0-13.21 1.16-19.07 3.105a103.881 103.881 0 0 0-31.25-4.805c-27.92 0-53.6 10.032-73.1 31.2l-.03.027a99.702 99.702 0 0 0-14.42 20.195c3.15 4.1 4.73 9.339 4.73 15.718v125.12c0 7.253-2.04 13.147-6.12 17.68a9.4 9.4 0 0 1-.37.379Zm128.06-161.489a.928.928 0 0 0-.11.083c-2.03 1.567-3.8 3.45-5.32 5.647a37.497 37.497 0 0 0-9.45-6.542 41.338 41.338 0 0 0-5.85-2.298 61.538 61.538 0 0 0-10.54-2.262 61.181 61.181 0 0 0-7.48-.458c-4.39 0-8.57.385-12.53 1.155-11.4 2.213-21.05 7.608-28.95 16.185-10.42 11.321-15.63 25.807-15.64 43.46v57.18c.01 5.007.41 9.707 1.18 14.101 1.14 6.571 3.13 12.456 5.96 17.657.43.779.87 1.542 1.33 2.29a47.28 47.28 0 0 0 4.45 6.072 43.223 43.223 0 0 0 4.52 4.435c.6.504 1.21.99 1.83 1.457a40.401 40.401 0 0 0 6.23 3.864c6.46 3.243 13.94 4.864 22.44 4.864 5.81 0 11.14-.872 15.98-2.617a43.56 43.56 0 0 0 2-.783c.16-.071.33-.142.49-.215.19-.083.38-.167.57-.253a40.137 40.137 0 0 0 3.06-1.572c6.34-3.853 10.88-9.52 13.6-17l3.4-.34v19.38c0 2.715-.26 5.161-.77 7.336a20.15 20.15 0 0 1-1.19 3.626c-.87 1.983-2.03 3.655-3.48 5.018-.13.123-.27.244-.4.363-.15.128-.29.253-.44.376-.17.141-.35.278-.52.412-3.46 2.633-7.88 3.949-13.26 3.949h-41.48c-5.22 0-9.52 1.133-12.92 3.4-3.18 2.493-4.76 6.12-4.76 10.88 0 .862.04 1.684.14 2.465.45 3.735 1.99 6.54 4.62 8.415 3.4 2.493 7.7 3.74 12.92 3.74h54.74c10.94 0 20-2.157 27.17-6.47 12.75-7.675 19.54-22.178 20.35-43.51.05-1.442.08-2.915.08-4.42V398.16c0-16.773-6.8-25.16-20.4-25.16-3.18 0-6.35.907-9.52 2.72-.71.437-1.4.907-2.05 1.41Zm-11.03 55.833c-.5-5.418-2.15-9.993-4.94-13.723-3.4-4.533-8.5-6.8-15.3-6.8a27.127 27.127 0 0 0-2.28.095c-1.84.156-3.57.509-5.2 1.056-.67.223-1.31.479-1.94.768-2.46 1.129-4.65 2.756-6.56 4.881-3.22 3.779-5.09 8.582-5.62 14.408-.09.95-.14 1.928-.16 2.932v52.7c0 1.537.1 3.01.29 4.42.09.627.2 1.241.32 1.842.4 1.879.98 3.634 1.76 5.267.04.091.08.181.13.27.03.058.05.115.08.172l.03.053c.27.527.55 1.04.86 1.541.49.799 1.03 1.565 1.63 2.297.22.271.44.537.68.798a21.518 21.518 0 0 0 3.21 2.652c.53.356 1.08.684 1.63.985 3.07 1.655 6.56 2.483 10.46 2.483 5.44 0 10.08-1.7 13.94-5.1 1.52-1.34 2.8-2.838 3.87-4.494 1.24-1.941 2.17-4.098 2.78-6.474.12-.464.23-.937.33-1.418.05-.289.11-.58.16-.874v-57.12c0-1.245-.06-2.45-.16-3.617Z" clip-rule="evenodd"/><path fill="#1D1D1D" fill-rule="evenodd" d="M1049.1 263.41c-2.85-.276-5.61-.39-8.21-.39-14.07 0-32.62 3.273-47.615 17.421-15.46 14.59-19.523 33.48-19.523 48.359 0 10.816 2.147 23.752 9.258 35.615-3.428 7.03-5.41 14.371-6.302 21.586a45.837 45.837 0 0 1 7.066 7.059 41.103 41.103 0 0 1 1.768 2.38c4.261 6.203 6.392 13.116 6.392 20.74 0 5.213-1.7 9.633-5.1 13.26-2.799 2.986-6.366 4.742-10.702 5.27v26.38a53.026 53.026 0 0 1 4.922 4.73c7.48 7.707 11.22 17.68 11.22 29.92 0 9.435-2.231 17.709-6.693 24.82-2.323 3.702-5.251 7.09-8.784 10.162 1.677 12.614 6.662 25.359 16.494 36.284l.367.408.378.399c12.814 13.525 29.624 19.887 46.854 19.887 17.24 0 34.05-6.362 46.86-19.887l.38-.399.36-.408c9.28-10.309 14.24-22.239 16.18-34.151a43.546 43.546 0 0 1-3.4-3.455 46.89 46.89 0 0 1-6.03-8.84c-4.6-8.667-6.89-19.207-6.89-31.62v-56.78c0-14.322 3.42-26.562 10.26-36.72 1.6-2.381 3.4-4.648 5.38-6.8.41-.444.82-.88 1.24-1.307-.82-7.735-2.87-15.645-6.59-23.191 6.98-11.828 9.05-24.665 9.05-35.342 0-14.479-3.81-32.929-18.5-47.448-16.4-1.407-29.47-7.071-39.19-16.992-.3-.314-.6-.631-.9-.95Zm13.36 128.289c-.6-5.528-2.58-10.061-5.93-13.599-4.08-4.533-9.29-6.8-15.64-6.8-6.34 0-11.56 2.267-15.64 6.8-3.36 3.547-5.33 8.092-5.93 13.638a36.785 36.785 0 0 0-.19 3.702v125.12c0 7.253 2.04 13.147 6.12 17.68 4.08 4.307 9.3 6.46 15.64 6.46 6.35 0 11.56-2.153 15.64-6.46 4.08-4.533 6.12-10.427 6.12-17.68V395.44c0-1.294-.06-2.541-.19-3.741Zm-45.5-58.912c1.34 12.529 9.31 18.793 23.93 18.793 14.46 0 22.33-6.307 23.62-18.921.12-1.226.18-2.513.18-3.859 0-15.187-7.93-22.78-23.8-22.78-16.09 0-24.14 7.593-24.14 22.78 0 1.393.07 2.722.21 3.987Z" clip-rule="evenodd"/><path fill="#1D1D1D" fill-rule="evenodd" d="M829.644 526.946c3.444 9.571 8.822 18.064 15.295 25.313 10.867 12.171 24.346 20.701 38.722 26.52 14.945 6.049 30.656 8.921 46.733 8.921 25.559 0 51.62-5.779 72.676-22.887l.21-.168.2-.171c9.19-7.659 16.4-16.57 21.62-26.408-3.98-4.51-5.97-10.345-5.97-17.506V395.44c0-7.253 2.04-13.033 6.12-17.34l.03-.028a81.676 81.676 0 0 0-7.93-11.874c-10.95-13.685-25.154-22.995-40.389-29.044-15.389-6.201-31.708-8.854-48.267-8.854-18.698 0-37.576 3.417-54.671 12.59-14.855 7.971-27.984 19.197-37.333 34.334l-.096.154-.094.155c-3.307 5.457-6.046 11.194-8.146 17.171a55.692 55.692 0 0 1 7.086 11.236c2.778 5.695 4.705 11.475 5.781 17.34a62.134 62.134 0 0 1 1.019 11.22v13.6c0 8.16-2.493 14.733-7.48 19.72-.343.359-.695.706-1.057 1.039a97.352 97.352 0 0 0 1.654 3.025 59.797 59.797 0 0 0-8.784 21.842c2.761.587 5.15 1.812 7.167 3.674 2.424 2.078 3.922 4.684 4.495 7.82.177.969.265 1.99.265 3.06 0 4.987-1.927 10.54-5.78 16.66a34.097 34.097 0 0 1-3.076 4.006Zm40.998-82.379a50.775 50.775 0 0 0 1.648 3.269 57.146 57.146 0 0 0 4.384 6.764c2.743 3.54 6.144 6.734 10.2 9.583.658.463 1.334.916 2.027 1.36.413.265.832.527 1.258.785 5.004 3.038 10.858 5.629 17.562 7.773a114.14 114.14 0 0 0 2.953.899l24.14 7.14c2.591.81 4.907 1.634 6.949 2.473l.234.096c3.558 1.479 6.263 3.003 8.117 4.571.969.82 1.779 1.689 2.429 2.607.23.325.441.656.631.993.513.909.88 1.862 1.103 2.86.171.767.257 1.56.257 2.38 0 1.962-.423 3.76-1.271 5.393-.073.142-.15.282-.23.422-1.02 1.777-2.56 3.352-4.619 4.725-3.853 2.493-9.18 3.74-15.98 3.74-.634 0-1.256-.007-1.864-.023l-.176-.004a58.949 58.949 0 0 1-4.924-.332c-4.711-.533-8.396-1.66-11.056-3.381a31.206 31.206 0 0 1-1.812-1.384 34.918 34.918 0 0 1-1.281-1.111 39.703 39.703 0 0 1-2.9-2.945 51.172 51.172 0 0 1-3.542-4.479 61.32 61.32 0 0 1-.765-1.108l-.094-.138a78.205 78.205 0 0 1-.486-.735c-2.493-3.853-4.873-6.687-7.14-8.5-2.04-1.813-5.213-2.72-9.52-2.72-5.667 0-10.2 1.813-13.6 5.44-3.173 3.4-4.76 7.48-4.76 12.24l.001.269c.042 4.346 1.105 8.529 3.188 12.549.169.327.345.652.528.977l.066.117c.137.241.278.481.423.721 1.182 1.962 2.613 3.885 4.294 5.767a49.573 49.573 0 0 0 4.083 4.064c3.852 3.417 8.376 6.401 13.571 8.95a79.757 79.757 0 0 0 5.126 2.286c9.52 3.853 19.72 5.78 30.6 5.78.685 0 1.365-.005 2.04-.016 13.689-.222 25.187-2.693 34.493-7.413a50.24 50.24 0 0 0 9.027-5.831c10.288-8.573 15.712-19.68 16.272-33.32.032-.785.048-1.578.048-2.38 0-7.344-1.346-13.871-4.039-19.583-1.795-3.808-4.189-7.254-7.181-10.337a53.07 53.07 0 0 0-7.82-7.012c-5.941-4.363-12.968-7.692-21.08-9.988l-21.08-6.12a81.161 81.161 0 0 1-2.04-.641l-.103-.034a74.398 74.398 0 0 1-1.497-.514 58.27 58.27 0 0 1-4.33-1.729 46.215 46.215 0 0 1-1.766-.837l-.186-.094c-2.214-1.122-4.12-2.333-5.718-3.631-2.105-1.842-3.599-3.951-4.483-6.328a14.846 14.846 0 0 1-.194-.557c-.509-1.56-.763-3.232-.763-5.015 0-1.274.149-2.489.446-3.644.519-2.012 1.489-3.843 2.91-5.494a16.871 16.871 0 0 1 1.744-1.742c3.334-2.89 7.868-4.363 13.6-4.418l.34-.002c2.932 0 5.549.266 7.852.798.46.106.908.223 1.343.351.824.241 1.602.521 2.336.839.094.04.187.082.28.123a15.69 15.69 0 0 1 2.809 1.629 32.931 32.931 0 0 1 2.738 2.253c.855.78 1.71 1.631 2.564 2.554a54.94 54.94 0 0 1 2.227 2.566 67.54 67.54 0 0 1 2.671 3.507c1.498 1.926 2.92 3.625 4.267 5.096l.117.128c1.462 1.588 2.834 2.907 4.116 3.956 2.72 2.04 6.347 3.06 10.88 3.06 5.667 0 10.2-1.813 13.6-5.44 2.663-2.841 4.283-6.168 4.86-9.982.16-1.055.24-2.148.24-3.278 0-5.757-1.215-11.11-3.646-16.057a36.356 36.356 0 0 0-.789-1.515l-.101-.181a39.141 39.141 0 0 0-3.624-5.367c-4.251-5.313-9.816-9.727-16.696-13.241a69.35 69.35 0 0 0-6.084-2.739c-9.43-3.817-20.083-5.743-31.96-5.779l-.34-.001c-13.6 0-25.047 2.493-34.34 7.48a67.91 67.91 0 0 0-5.554 3.321c-6.59 4.391-11.765 9.63-15.526 15.719a51.824 51.824 0 0 0-1.783 3.186c-3.345 6.507-5.017 13.265-5.017 20.274v4.42c0 6.52 1.389 12.809 4.168 18.867Z" clip-rule="evenodd"/><path fill="#1D1D1D" fill-rule="evenodd" d="M784.678 328.343c3.144 1.772 7.051 2.657 11.723 2.657 2.237 0 4.338-.257 6.303-.772 12.515 2.352 24.665 6.97 35.839 14.467 15.32 10.135 27.566 23.725 35.629 40.569a115.574 115.574 0 0 1 3.121 7.002 47.143 47.143 0 0 0-4.019 5.554c-4.534 7.48-6.8 15.3-6.8 23.46v4.42c0 2.295.172 4.562.516 6.8.717 4.658 2.179 9.191 4.388 13.6 1.445 2.887 3.211 5.72 5.296 8.5 1.986 2.562 4.315 4.944 6.989 7.144-1.426 6.879-3.862 13.643-7.477 20.028a55.956 55.956 0 0 1 2.2 5.49 16.464 16.464 0 0 0-5.112 3.718c-3.174 3.4-4.76 7.48-4.76 12.24 0 1.029.057 2.049.171 3.06.69 6.114 3.466 11.894 8.329 17.34.522.585 1.061 1.16 1.617 1.724-2.361 7.845-5.896 14.747-9.523 20.507l-.197.312-.201.309c-9.088 13.898-21.855 23.42-34.707 30.019-16.198 8.318-33.997 11.209-51.263 11.209-28.777 0-56.904-8.407-78.305-30.237l-.152-.155-.151-.156c-6.338-6.598-11.561-13.744-15.732-21.322 2.87-3.942 4.305-9.825 4.305-17.65V373.29c8.03-12.297 18.685-22.315 31.347-29.912 17.673-10.842 37.502-15.078 57.328-15.078 1.1 0 2.199.014 3.298.043ZM718.571 430.3a82.436 82.436 0 0 0-.091 3.9v48.96c0 1.263.028 2.509.083 3.74.075 1.669.2 3.309.377 4.92 1.538 14.053 6.938 25.9 16.2 35.54a53.3 53.3 0 0 0 4.756 4.3c10.872 8.693 25.153 13.04 42.844 13.04.918 0 1.825-.011 2.72-.034 11.486-.289 21.12-2.431 28.9-6.426a67.362 67.362 0 0 0 3.006-1.634 61.387 61.387 0 0 0 3.748-2.333c.479-.323.948-.65 1.406-.981 4.331-3.125 7.731-6.575 10.2-10.352a57.388 57.388 0 0 0 1.071-1.771c.177-.308.35-.613.518-.918 1.382-2.507 2.423-4.914 3.121-7.221.713-2.355 1.07-4.605 1.07-6.75 0-4.533-1.587-8.16-4.76-10.88-1.915-1.768-4.165-2.961-6.751-3.58-1.392-.333-2.882-.5-4.469-.5-1.652 0-3.159.167-4.519.5a12.798 12.798 0 0 0-2.961 1.107 10.87 10.87 0 0 0-1.7 1.113c-2.267 1.813-4.647 4.533-7.14 8.16a58.043 58.043 0 0 1-2.145 2.692c-.405.477-.813.94-1.223 1.388a42.88 42.88 0 0 1-3.241 3.199 36.48 36.48 0 0 1-1.891 1.561c-.489.338-1.008.648-1.559.931-2.772 1.419-6.332 2.129-10.681 2.129-.93 0-1.836-.038-2.72-.115-6.23-.543-11.33-2.998-15.3-7.365a24.565 24.565 0 0 1-4.172-6.837c-.988-2.418-1.657-5.073-2.005-7.963a41.172 41.172 0 0 1-.283-4.92v-13.6h54.06c2.678 0 5.171-.254 7.48-.763 4.92-1.084 9-3.323 12.24-6.717 3.86-3.86 6.226-8.671 7.098-14.432.127-.836.222-1.692.285-2.568.065-.886.097-1.793.097-2.72v-13.6c0-.795-.015-1.588-.045-2.38-.34-8.918-2.591-17.644-6.755-26.18a55.717 55.717 0 0 0-11.653-16.213 59.377 59.377 0 0 0-1.776-1.649 63.306 63.306 0 0 0-7.311-5.598c-9.067-6.12-20.173-9.18-33.32-9.18l-.68.002c-13.53.096-24.977 3.042-34.34 8.838-3.165 1.884-6.055 3.981-8.669 6.291-5.248 4.638-9.385 10.134-12.411 16.489-3.984 8.366-6.217 17.433-6.7 27.2l-.009.18Zm42.409-.18v18.7h39.44v-18.7c0-3.135-.47-5.938-1.41-8.409a17.31 17.31 0 0 0-4.37-6.551 19.355 19.355 0 0 0-2.066-1.9c-3.113-2.46-6.844-3.75-11.194-3.871a25.528 25.528 0 0 0-.68-.009c-5.175 0-9.593 1.607-13.256 4.82a20.497 20.497 0 0 0-1.024.96 17.293 17.293 0 0 0-3.732 5.573c-1.139 2.702-1.708 5.831-1.708 9.387Z" clip-rule="evenodd"/><path fill="#1D1D1D" fill-rule="evenodd" d="M629.403 279.659a17.37 17.37 0 0 0 8.236 2.041c8.387 0 15.187-4.647 20.4-13.94l1.087-1.949a67.611 67.611 0 0 1 12.159-1.091c16.015 0 32.008 5.413 44.825 17.518 16.546 15.627 19.595 36.281 19.595 50.302v55.739c-4.316 4.23-7.791 9.11-10.425 14.641-4.533 9.52-6.8 19.947-6.8 31.28v48.96c0 13.469 3.142 25.142 9.425 35.02a58.748 58.748 0 0 0 7.235 9.18l.126.128c-1.22 12.505-5.426 27.969-17.935 40.478C705.113 580.183 689.402 586 673.325 586c-8.29 0-17.001-1.491-25.321-5.042-11.04 4.59-22.698 6.742-34.519 6.742-24.242 0-46.825-8.375-64.707-25.821l-.19-.186-.188-.187c-9.841-9.841-16.449-21.201-20.609-33.208a35.028 35.028 0 0 0 4.341-5.358c3.853-6.12 5.78-11.673 5.78-16.66 0-4.533-1.587-8.16-4.76-10.88-2.947-2.72-6.687-4.08-11.22-4.08h-.065l-.002-.68v-18.088c4.95-1.079 9.052-3.323 12.307-6.732 4.986-4.987 7.48-11.56 7.48-19.72v-13.6c0-.567-.008-1.134-.024-1.7-.248-9.154-2.507-18.108-6.776-26.86a55.832 55.832 0 0 0-6.946-11.064c4.097-11.934 10.397-23.179 19.26-33.278l.161-.185.164-.182c16.159-17.995 36.889-27.705 59.439-30.248.497-13.56 4.151-33.077 20.454-47.592a69.49 69.49 0 0 1 2.019-1.732Zm-18.585 92.159a58.18 58.18 0 0 0-3.953.64c-10.909 2.156-20.035 7.323-27.38 15.502-9.746 11.107-14.62 25.387-14.62 42.84v59.84c0 2.606.101 5.12.303 7.543.924 11.087 3.959 20.267 9.106 27.541a41.445 41.445 0 0 0 4.531 5.376 49.94 49.94 0 0 0 4.572 3.956c.635.484 1.279.95 1.932 1.398 8.018 5.497 17.41 8.246 28.176 8.246.444 0 .886-.005 1.325-.016 4.812-.118 9.357-.884 13.635-2.296a43.47 43.47 0 0 0 7.82-3.468c6.066-3.522 10.696-8.395 13.89-14.62.506-.986.976-2.006 1.41-3.06h3.06v3.06c0 5.667 1.7 10.2 5.1 13.6 2.081 2.081 4.587 3.525 7.517 4.332 1.857.512 3.885.768 6.083.768 5.44 0 9.974-1.813 13.6-5.44.402-.402.783-.832 1.143-1.29 2.257-2.875 3.69-6.865 4.299-11.97.117-.979.204-1.999.26-3.06.052-.985.078-2.005.078-3.06V332.54c0-8.84-2.04-15.187-6.12-19.04-4.08-3.853-9.18-5.78-15.3-5.78-5.893 0-10.993 1.927-15.3 5.78-4.08 3.627-6.12 9.973-6.12 19.04v47.94a22.346 22.346 0 0 0-.16-.126c-5.646-4.434-12.62-7.239-20.92-8.416-3-.425-6.173-.638-9.52-.638a66.94 66.94 0 0 0-8.447.518Zm33.267 47.082c-3.626-4.307-8.726-6.46-15.3-6.46-1.625 0-3.159.127-4.603.382-1.741.307-3.351.8-4.827 1.478-2.591 1.19-4.774 2.95-6.55 5.28-2.797 3.73-4.444 8.381-4.94 13.953a42.865 42.865 0 0 0-.16 3.727v52.36a37.15 37.15 0 0 0 .096 2.72c.046.629.107 1.244.185 1.846.332 2.559.957 4.876 1.877 6.951a19.777 19.777 0 0 0 2.019 3.541l.007.009a18.929 18.929 0 0 0 1.596 1.933c1.949 1.84 4.104 3.241 6.466 4.202.167.068.335.134.504.198 2.447.92 5.111 1.38 7.99 1.38.517 0 1.027-.017 1.53-.05 4.576-.304 8.599-1.987 12.07-5.05 3.899-3.465 6.452-8.172 7.66-14.121.057-.277.11-.557.16-.839V434.2c0-1.018-.053-2.008-.16-2.97-.534-4.819-2.407-8.929-5.62-12.33Zm5.601-86.979Zm43.199-.103Z" clip-rule="evenodd"/><path fill="#1D1D1D" fill-rule="evenodd" d="M391.899 542.603a102.01 102.01 0 0 0 11.645 14.549l.15.156.152.155c21.402 21.83 49.529 30.237 78.305 30.237 17.267 0 35.066-2.891 51.263-11.209 12.852-6.599 25.62-16.121 34.707-30.019l.202-.309.197-.312c3.053-4.85 6.042-10.509 8.319-16.859-5.235-6.022-8.753-13.592-10.555-22.712-.651-3.293-1.077-6.788-1.28-10.485l-.001-.001-.029-.572a95.208 95.208 0 0 1-.109-4.582V430.8c0-15.552 3.87-28.584 11.609-39.097a115.475 115.475 0 0 0-2.89-6.439c-8.064-16.844-20.309-30.434-35.63-40.569-17.45-11.708-37.281-16.395-57.163-16.395-19.826 0-39.655 4.236-57.327 15.078-10.956 6.573-20.41 14.959-27.96 25.066.411 3.253.616 6.585.616 9.996 0 3.63-.227 7.147-.681 10.55-1.302 9.772-4.476 18.609-9.519 26.51-3.09 4.841-6.719 9.074-10.886 12.699a126.04 126.04 0 0 0-.143 6.001v32.779l22.589 37.261c4.307 7.253 6.46 13.713 6.46 19.38 0 6.573-2.267 11.787-6.8 15.64a23.029 23.029 0 0 1-5.241 3.343ZM417.983 430.3a82.436 82.436 0 0 0-.091 3.9v48.96c0 1.263.027 2.509.082 3.74.075 1.669.201 3.309.377 4.92 1.538 14.053 6.939 25.9 16.2 35.54a53.494 53.494 0 0 0 4.756 4.3c10.873 8.693 25.154 13.04 42.844 13.04.918 0 1.825-.011 2.72-.034 11.487-.289 21.12-2.431 28.9-6.426a69.983 69.983 0 0 0 3.007-1.634 61.695 61.695 0 0 0 3.748-2.333c.479-.323.947-.65 1.405-.981 4.331-3.125 7.731-6.575 10.201-10.352a54.1 54.1 0 0 0 1.589-2.689c1.382-2.507 2.422-4.914 3.121-7.221.713-2.355 1.069-4.605 1.069-6.75 0-4.533-1.586-8.16-4.76-10.88-1.915-1.768-4.165-2.961-6.75-3.58-1.393-.333-2.883-.5-4.47-.5-1.652 0-3.158.167-4.518.5a12.798 12.798 0 0 0-2.961 1.107 10.88 10.88 0 0 0-1.701 1.113c-2.266 1.813-4.646 4.533-7.14 8.16a58.033 58.033 0 0 1-1.768 2.243c-.126.151-.251.301-.377.449-.405.477-.813.94-1.223 1.388a42.695 42.695 0 0 1-3.241 3.199 36.062 36.062 0 0 1-1.891 1.561 13.91 13.91 0 0 1-1.558.931c-2.772 1.419-6.332 2.129-10.682 2.129a31.35 31.35 0 0 1-2.72-.115c-6.229-.543-11.329-2.998-15.3-7.365a24.618 24.618 0 0 1-4.171-6.837c-.989-2.418-1.657-5.073-2.005-7.963a41.172 41.172 0 0 1-.283-4.92v-13.6h54.06c2.678 0 5.171-.254 7.479-.763 4.921-1.084 9.001-3.323 12.24-6.717 3.861-3.86 6.227-8.671 7.099-14.432.126-.836.221-1.692.285-2.568a37.76 37.76 0 0 0 .096-2.72v-13.6c0-.795-.015-1.588-.045-2.38-.339-8.918-2.591-17.644-6.755-26.18a55.732 55.732 0 0 0-11.652-16.213 59.377 59.377 0 0 0-1.776-1.649 63.233 63.233 0 0 0-7.312-5.598c-9.066-6.12-20.173-9.18-33.32-9.18l-.68.002c-13.529.096-24.976 3.042-34.34 8.838-3.165 1.884-6.054 3.981-8.668 6.291-5.248 4.638-9.385 10.134-12.412 16.489-3.984 8.366-6.217 17.433-6.7 27.2l-.008.18Zm42.409-.18v18.7h39.44v-18.7c0-3.135-.471-5.938-1.411-8.409a17.31 17.31 0 0 0-4.37-6.551 19.218 19.218 0 0 0-2.066-1.9c-3.112-2.46-6.843-3.75-11.194-3.871a25.472 25.472 0 0 0-.68-.009c-5.174 0-9.593 1.607-13.255 4.82a19.437 19.437 0 0 0-1.024.96 17.312 17.312 0 0 0-3.733 5.573c-1.138 2.702-1.707 5.831-1.707 9.387Z" clip-rule="evenodd"/><path fill="#1D1D1D" fill-rule="evenodd" d="M265.81 268.147c-10.476 3.157-20.774 8.776-29.596 17.981-14.395 15.022-19.774 33.753-19.774 51.512V515.8c0 15.609 4.027 31.702 14.224 45.865l.245.34.251.335c12.513 16.685 31.028 25.36 51.06 25.36 18.946 0 37.076-7.628 49.83-23.348 11.307 12.806 27.653 23.348 49.79 23.348 15.514 0 30.554-5.07 42.998-15.549l.075-.064.076-.064c11.632-9.887 18.303-22.589 20.804-35.925a52.837 52.837 0 0 1-11.241-8.738 60.058 60.058 0 0 1-3.31-3.74c-7.244-8.907-11.54-19.498-12.888-31.774a79.658 79.658 0 0 1-.462-8.686v-28.197l-3.472-5.727c1.192-1.43 2.35-2.898 3.472-4.405V434.2c0-11.333 2.266-21.76 6.8-31.28 3.374-7.086 8.129-13.104 14.266-18.055.108-2.133.162-4.276.162-6.425 0-19.564-4.498-38.419-13.957-55.707-9.89-18.752-24.763-33.158-43.029-43.186a109.793 109.793 0 0 0-8.857-4.354l-.042.047c-4.08 4.307-9.293 6.46-15.64 6.46-6.346 0-11.56-2.153-15.64-6.46-2.429-2.7-4.136-5.882-5.119-9.547-5.912-.664-11.89-.973-17.896-.973h-6.096c-1.147 3.955-3.136 7.348-5.968 10.18-4.37 4.162-9.982 6.414-16.836 6.754-.611.031-1.233.046-1.864.046-10.43 0-17.886-4.518-22.366-13.553Zm121.47 74.933a59.248 59.248 0 0 0-11.433-15.331 63.03 63.03 0 0 0-6.62-5.568 71.02 71.02 0 0 0-7.787-4.941c-11.56-6.347-25.727-9.52-42.5-9.52h-28.9c-9.973 0-17.567 2.72-22.78 8.16a26.31 26.31 0 0 0-4.58 6.506c-2.16 4.333-3.24 9.418-3.24 15.254V515.8c0 8.16 2.04 15.073 6.12 20.74 4.08 5.44 9.633 8.16 16.66 8.16 7.253 0 12.92-2.72 17-8.16 3.345-4.401 5.39-9.554 6.138-15.458a42.05 42.05 0 0 0 .322-5.282v-82.96h4.42l9.52 26.18 39.1 69.02c6.347 11.107 14.053 16.66 23.12 16.66 5.893 0 10.993-1.813 15.3-5.44 4.533-3.853 6.8-9.067 6.8-15.64 0-5.667-2.153-12.127-6.46-19.38l-39.78-65.62.224-.089a62.982 62.982 0 0 0 8.573-4.195 58.072 58.072 0 0 0 3.829-2.461 56.505 56.505 0 0 0 5.029-3.958c4.033-3.561 7.554-7.7 10.565-12.417 6.8-10.653 10.2-23.007 10.2-37.06 0-12.92-2.947-24.707-8.84-35.36Zm-73.44 1.36h-8.16v66.3h2.38a79.591 79.591 0 0 0 3.443-.068c11.948-.481 21.341-3.519 28.177-9.112a33.688 33.688 0 0 0 2.457-2.217 32.03 32.03 0 0 0 1.112-1.168l.211-.235a28.559 28.559 0 0 0 5.22-8.46c1.48-3.729 2.22-7.863 2.22-12.4 0-4.625-.74-8.816-2.22-12.573a27.997 27.997 0 0 0-3.937-6.924 30.006 30.006 0 0 0-3.418-3.705l-.285-.258c-5.574-5.19-12.941-8.179-22.1-8.968a59.622 59.622 0 0 0-5.1-.212Zm975.35-74.736c3.34 7.248 7.79 13.794 12.93 19.555 10.87 12.171 24.35 20.701 38.72 26.52 14.95 6.049 30.66 8.921 46.74 8.921 25.56 0 51.62-5.779 72.67-22.887l.21-.168.21-.171c21.12-17.608 31.79-41.831 31.79-68.734 0-15.358-3.5-30.485-11.32-43.991 7.38-10.62 10.98-22.947 10.98-35.569 0-18.494-6.12-35.649-17.59-49.982-10.94-13.685-25.15-22.996-40.39-29.044-15.39-6.2-31.7-8.854-48.26-8.854-18.7 0-37.58 3.417-54.67 12.59-14.86 7.971-27.99 19.197-37.34 34.334l-.09.154-.1.155a93.139 93.139 0 0 0-4.61 8.581c3.7 2.627 6.89 5.609 9.56 8.946 5.44 6.8 8.16 14.507 8.16 23.12 0 1.794-.2 3.494-.6 5.1a18.063 18.063 0 0 1-1.75 4.42 19.015 19.015 0 0 1-2.75 3.74c-3.4 3.627-7.93 5.44-13.6 5.44-2.67 0-5.02-.353-7.06-1.06a87.506 87.506 0 0 0 5.74 24.048 53.488 53.488 0 0 1 8.89 7.682c.09.09.17.18.25.27 3.29 3.386 5.85 7.209 7.69 11.47.09.189.17.378.25.569 1.38 3.355 2.33 6.976 2.84 10.864.29 2.25.44 4.589.44 7.017 0 2.58-.16 5.074-.5 7.48-1.57 11.335-6.84 20.741-15.82 28.22-.53.432-1.07.853-1.62 1.264Zm36.51-29.215c.04 4.346 1.1 8.529 3.19 12.549.17.327.34.652.52.977.03.039.05.078.07.117l.42.721c1.19 1.962 2.62 3.885 4.3 5.767a48.313 48.313 0 0 0 4.08 4.064c3.85 3.417 8.38 6.401 13.57 8.95.42.203.83.404 1.26.601 1.25.586 2.54 1.148 3.87 1.685 9.52 3.853 19.72 5.78 30.6 5.78.68 0 1.36-.005 2.04-.016 13.69-.222 25.18-2.693 34.49-7.413l.42-.214a50.248 50.248 0 0 0 8.61-5.617c10.29-8.573 15.71-19.68 16.27-33.32.03-.785.05-1.578.05-2.38 0-7.344-1.35-13.871-4.04-19.583a38.22 38.22 0 0 0-7.18-10.337 53.706 53.706 0 0 0-7.82-7.012c-5.94-4.363-12.97-7.692-21.08-9.988l-21.08-6.12c-.7-.209-1.38-.423-2.04-.641-.04-.012-.07-.023-.11-.034-.5-.169-1-.34-1.49-.514a57.413 57.413 0 0 1-4.33-1.729 45.72 45.72 0 0 1-1.77-.837l-.18-.094c-2.22-1.122-4.12-2.333-5.72-3.631-2.11-1.842-3.6-3.951-4.49-6.328a9.228 9.228 0 0 1-.17-.501c-.01-.019-.01-.037-.02-.056-.51-1.56-.76-3.232-.76-5.015 0-1.274.15-2.489.44-3.644.52-2.012 1.49-3.843 2.91-5.494.52-.605 1.11-1.186 1.75-1.742 3.33-2.89 7.87-4.363 13.6-4.418l.34-.002c2.93 0 5.55.266 7.85.798.46.106.91.223 1.34.351.83.241 1.6.521 2.34.839.09.04.19.082.28.123a15.77 15.77 0 0 1 2.81 1.629c.83.607 1.65 1.282 2.48 2.023.09.076.17.153.26.23.85.78 1.71 1.631 2.56 2.554.74.801 1.48 1.657 2.23 2.566.57.708 1.15 1.449 1.73 2.222.31.419.62.847.94 1.285a86.787 86.787 0 0 0 4.26 5.096l.12.128c1.46 1.588 2.84 2.907 4.12 3.956 2.72 2.04 6.34 3.06 10.88 3.06 5.66 0 10.2-1.813 13.6-5.44 2.66-2.841 4.28-6.168 4.86-9.982.16-1.055.24-2.148.24-3.278 0-5.757-1.22-11.11-3.65-16.057-.25-.509-.51-1.014-.79-1.515-.03-.06-.06-.121-.1-.181-.24-.433-.49-.863-.75-1.29a40.955 40.955 0 0 0-2.87-4.077c-4.25-5.313-9.82-9.727-16.7-13.241a68.737 68.737 0 0 0-6.08-2.739c-9.43-3.817-20.09-5.743-31.96-5.779l-.34-.001c-13.6 0-25.05 2.493-34.34 7.48a68.035 68.035 0 0 0-5.56 3.321c-6.59 4.391-11.76 9.63-15.52 15.719a52.511 52.511 0 0 0-1.79 3.187c-3.34 6.507-5.01 13.264-5.01 20.273v4.42c0 6.52 1.39 12.809 4.17 18.867.5 1.097 1.05 2.187 1.64 3.269a56.956 56.956 0 0 0 4.39 6.764c2.74 3.54 6.14 6.734 10.2 9.583.66.463 1.33.916 2.02 1.36.42.265.84.527 1.26.785 5.01 3.038 10.86 5.629 17.56 7.773l.99.309c.65.201 1.3.398 1.97.59l24.14 7.14c2.59.81 4.9 1.634 6.95 2.472.07.033.15.065.23.097 3.56 1.479 6.26 3.003 8.12 4.571.97.82 1.78 1.689 2.43 2.607.23.325.44.656.63.993a10.4 10.4 0 0 1 1.1 2.86c.17.767.26 1.56.26 2.38 0 1.962-.43 3.76-1.27 5.393-.08.142-.15.282-.23.422-1.02 1.777-2.56 3.352-4.62 4.725-3.86 2.493-9.18 3.74-15.98 3.74-.64 0-1.26-.007-1.87-.023l-.17-.004a58.808 58.808 0 0 1-4.93-.332c-4.71-.533-8.39-1.66-11.05-3.381-.49-.345-.98-.71-1.46-1.094a8.696 8.696 0 0 1-.35-.29c-.43-.354-.86-.725-1.29-1.111a41.992 41.992 0 0 1-2.9-2.945 53.323 53.323 0 0 1-3.54-4.479c-.25-.363-.51-.732-.76-1.108-.03-.046-.07-.092-.1-.138-.16-.242-.32-.487-.48-.735-2.5-3.853-4.88-6.687-7.14-8.5-2.04-1.813-5.22-2.72-9.52-2.72-5.67 0-10.2 1.813-13.6 5.44-3.18 3.4-4.76 7.48-4.76 12.24v.269Z" clip-rule="evenodd"/><path fill="#1D1D1D" fill-rule="evenodd" d="M1144.5 263.946c3.45 9.571 8.82 18.064 15.3 25.313 10.86 12.171 24.34 20.701 38.72 26.52 14.94 6.049 30.65 8.921 46.73 8.921 25.56 0 51.62-5.779 72.68-22.887l.2-.168.21-.171c11.2-9.334 19.46-20.527 24.75-32.993-3.36-2.364-6.32-4.985-8.89-7.861-5.67-6.347-8.5-13.147-8.5-20.4 0-2.714.51-5.208 1.55-7.48.77-1.712 1.84-3.299 3.21-4.76 3.4-3.627 7.93-5.44 13.6-5.44 2.15 0 4.03.227 5.61.682-.71-7.333-2.28-14.544-4.8-21.479-3.72-2.52-6.92-5.319-9.58-8.397-.5-.572-.97-1.154-1.43-1.746-3.84-5.123-6.6-10.427-8.27-15.912-.14-.434-.26-.869-.38-1.305a47.146 47.146 0 0 1-.9-4.049 45.1 45.1 0 0 1-.65-7.634v-4.42c0-1.715.1-3.415.3-5.1.75-6.332 2.92-12.452 6.5-18.36 3.2-5.178 7.42-9.742 12.66-13.692-2.8-6.346-6.45-12.351-10.91-17.93-10.95-13.685-25.16-22.996-40.39-29.044-15.39-6.2-31.71-8.854-48.27-8.854-18.7 0-37.57 3.417-54.67 12.59-14.85 7.971-27.98 19.197-37.33 34.334l-.1.154-.09.155c-3.31 5.457-6.05 11.194-8.15 17.171a55.445 55.445 0 0 1 7.09 11.236c2.78 5.695 4.7 11.475 5.78 17.34.27 1.468.48 2.941.65 4.42.24 2.254.37 4.521.37 6.8v13.6c0 8.16-2.5 14.733-7.48 19.72-.34.359-.7.706-1.06 1.039a89.783 89.783 0 0 0 1.66 3.025 59.617 59.617 0 0 0-8.79 21.842c2.76.587 5.15 1.812 7.17 3.674 2.42 2.078 3.92 4.684 4.49 7.82.18.969.27 1.989.27 3.06 0 4.987-1.93 10.54-5.78 16.66a33.922 33.922 0 0 1-3.08 4.006Zm41-82.379a46.56 46.56 0 0 0 1.65 3.269c1.25 2.289 2.72 4.543 4.38 6.764 2.75 3.54 6.15 6.734 10.2 9.583a61.274 61.274 0 0 0 3.29 2.145c5 3.038 10.85 5.629 17.56 7.773a122.68 122.68 0 0 0 2.95.899l24.14 7.14c2.59.81 4.91 1.634 6.95 2.472.08.033.16.065.23.097 3.56 1.479 6.27 3.003 8.12 4.571.97.82 1.78 1.689 2.43 2.607.23.325.44.656.63.993a10.4 10.4 0 0 1 1.1 2.86c.18.767.26 1.56.26 2.38 0 1.962-.42 3.76-1.27 5.393-.07.142-.15.282-.23.422-1.02 1.777-2.56 3.352-4.62 4.725-3.85 2.493-9.18 3.74-15.98 3.74-.63 0-1.25-.007-1.86-.023l-.18-.004a58.808 58.808 0 0 1-4.92-.332c-4.71-.533-8.4-1.66-11.06-3.381-.49-.345-.97-.71-1.45-1.094-.12-.096-.24-.192-.36-.29-.43-.354-.86-.725-1.28-1.111a39.9 39.9 0 0 1-2.9-2.945 49.52 49.52 0 0 1-3.54-4.479c-.26-.363-.51-.732-.77-1.108l-.09-.138c-.16-.242-.33-.487-.49-.735-2.49-3.853-4.87-6.687-7.14-8.5-2.04-1.813-5.21-2.72-9.52-2.72-5.66 0-10.2 1.813-13.6 5.44-3.17 3.4-4.76 7.48-4.76 12.24v.269c.05 4.346 1.11 8.529 3.19 12.549.17.327.35.652.53.977l.06.117c.14.241.28.481.43.721 1.18 1.962 2.61 3.885 4.29 5.767a51.482 51.482 0 0 0 4.08 4.064c3.86 3.417 8.38 6.401 13.58 8.95a77.271 77.271 0 0 0 5.12 2.286c9.52 3.853 19.72 5.78 30.6 5.78.69 0 1.37-.005 2.04-.016 13.69-.222 25.19-2.693 34.5-7.413.13-.071.27-.142.41-.214a50.248 50.248 0 0 0 8.61-5.617c10.29-8.573 15.71-19.68 16.27-33.32.04-.785.05-1.578.05-2.38 0-7.344-1.34-13.871-4.04-19.583-1.79-3.808-4.19-7.254-7.18-10.337a52.9 52.9 0 0 0-7.82-7.012c-5.94-4.363-12.97-7.692-21.08-9.988l-21.08-6.12c-.69-.209-1.37-.423-2.04-.641-.03-.012-.07-.023-.1-.034-.51-.169-1.01-.34-1.5-.514a59.154 59.154 0 0 1-4.33-1.729 39.18 39.18 0 0 1-1.76-.837c-.07-.031-.13-.063-.19-.094-2.21-1.122-4.12-2.333-5.72-3.631-2.1-1.842-3.6-3.951-4.48-6.328l-.18-.501c0-.019-.01-.037-.02-.056-.5-1.56-.76-3.232-.76-5.015 0-1.274.15-2.489.45-3.644.52-2.012 1.49-3.843 2.91-5.494.52-.605 1.1-1.186 1.74-1.742 3.34-2.89 7.87-4.363 13.6-4.418l.34-.002c2.93 0 5.55.266 7.85.798.46.106.91.223 1.35.351.82.241 1.6.521 2.33.839.1.04.19.082.28.123 1.03.466 1.97 1.009 2.81 1.629.83.607 1.66 1.282 2.49 2.023.08.076.17.153.25.23.85.78 1.71 1.631 2.56 2.554.75.801 1.49 1.657 2.23 2.566.58.708 1.16 1.449 1.73 2.222.32.419.63.847.94 1.285 1.5 1.926 2.92 3.625 4.27 5.096l.12.128c1.46 1.588 2.83 2.907 4.11 3.956 2.72 2.04 6.35 3.06 10.88 3.06 5.67 0 10.2-1.813 13.6-5.44 2.66-2.841 4.28-6.168 4.86-9.982.16-1.055.24-2.148.24-3.278 0-5.757-1.21-11.11-3.64-16.057-.25-.509-.52-1.014-.79-1.515-.04-.06-.07-.121-.1-.181-.25-.433-.5-.863-.76-1.29-.27-.443-.55-.883-.84-1.32a42.743 42.743 0 0 0-2.03-2.757c-4.25-5.313-9.81-9.727-16.69-13.241a70.289 70.289 0 0 0-6.09-2.739c-9.43-3.817-20.08-5.743-31.96-5.779l-.34-.001c-13.6 0-25.04 2.493-34.34 7.48a67.826 67.826 0 0 0-5.55 3.321c-6.59 4.391-11.77 9.63-15.53 15.719a52.323 52.323 0 0 0-1.78 3.187c-3.35 6.507-5.02 13.264-5.02 20.273v4.42c0 6.52 1.39 12.809 4.17 18.867Z" clip-rule="evenodd"/><path fill="#1D1D1D" fill-rule="evenodd" d="M993.574 143.32c-2.185 9.09-3.236 18.42-3.236 27.88v48.96c0 27.601 8.925 53.459 28.652 73.992l.15.156.15.155a96.417 96.417 0 0 0 14.49 12.141c2.17-.389 4.54-.584 7.11-.584 12.57 0 20.16 4.765 22.77 14.295 10.95 3.031 22.39 4.385 33.94 4.385 17.26 0 35.06-2.891 51.26-11.209 12.85-6.599 25.62-16.121 34.71-30.019l.2-.309.2-.312c3.62-5.76 7.16-12.662 9.52-20.507-.56-.564-1.1-1.139-1.62-1.724-4.86-5.446-7.64-11.226-8.33-17.34a28.27 28.27 0 0 1-.17-3.06c0-4.76 1.59-8.84 4.76-12.24 1.49-1.586 3.19-2.826 5.11-3.718a53.803 53.803 0 0 0-2.2-5.49c3.62-6.385 6.06-13.149 7.48-20.028-2.67-2.2-5-4.582-6.99-7.144-2.08-2.78-3.85-5.613-5.29-8.5-2.21-4.409-3.68-8.942-4.39-13.6a43.944 43.944 0 0 1-.52-6.8v-4.42c0-8.16 2.27-15.98 6.8-23.46a47.967 47.967 0 0 1 4.02-5.554c-.96-2.363-2-4.701-3.12-7.011-8.07-16.836-20.31-30.42-35.62-40.552-17.45-11.714-37.29-16.403-57.17-16.403-19.83 0-39.66 4.236-57.33 15.078-12.61 7.567-23.23 17.537-31.25 29.769 4.37.46 8.05 1.997 11.04 4.613 3.63 3.173 5.44 7.253 5.44 12.24 0 1.8-.21 3.465-.64 4.995-.82 2.901-2.42 5.316-4.8 7.245-3.4 2.72-8.04 4.08-13.94 4.08h-11.186Zm39.856 23.98a83.804 83.804 0 0 0-.09 3.9v48.96c0 1.262.03 2.509.08 3.74.08 1.669.2 3.309.38 4.92 1.54 14.053 6.94 25.9 16.2 35.54a52.535 52.535 0 0 0 4.01 3.693c.24.204.49.407.74.607 10.88 8.693 25.16 13.04 42.85 13.04.92 0 1.82-.011 2.72-.034 11.48-.289 21.12-2.431 28.9-6.426.54-.277 1.07-.557 1.59-.84.48-.262.95-.526 1.41-.794a57.973 57.973 0 0 0 3.75-2.333c.48-.323.95-.65 1.41-.981 4.33-3.125 7.73-6.575 10.2-10.352l.36-.58c.24-.399.48-.797.71-1.191.18-.308.35-.613.52-.918 1.38-2.507 2.42-4.914 3.12-7.221.71-2.355 1.07-4.605 1.07-6.75 0-4.533-1.59-8.16-4.76-10.88-1.92-1.768-4.17-2.961-6.75-3.58-1.4-.333-2.89-.5-4.47-.5-1.65 0-3.16.167-4.52.5-1.08.264-2.07.633-2.96 1.107-.61.323-1.18.694-1.7 1.113-2.27 1.813-4.65 4.533-7.14 8.16-.59.779-1.18 1.527-1.77 2.243-.13.151-.25.301-.38.449-.4.477-.81.94-1.22 1.388a41.431 41.431 0 0 1-3.24 3.199c-.63.552-1.26 1.072-1.89 1.561-.49.338-1.01.648-1.56.931-2.77 1.419-6.33 2.129-10.68 2.129-.93 0-1.84-.038-2.72-.115-6.23-.543-11.33-2.998-15.3-7.365a24.444 24.444 0 0 1-4.01-6.443 6.254 6.254 0 0 1-.16-.394c-.99-2.418-1.66-5.073-2.01-7.963-.19-1.57-.28-3.21-.28-4.92v-13.6h54.06c2.68 0 5.17-.254 7.48-.763 4.92-1.084 9-3.323 12.24-6.717 3.86-3.86 6.22-8.671 7.1-14.432.12-.836.22-1.692.28-2.568.07-.886.1-1.793.1-2.72v-13.6c0-.795-.02-1.588-.05-2.38-.34-8.918-2.59-17.645-6.75-26.18a55.837 55.837 0 0 0-13.43-17.862 63.294 63.294 0 0 0-7.31-5.598c-9.07-6.12-20.18-9.18-33.32-9.18l-.68.002c-13.53.096-24.98 3.042-34.34 8.838-3.17 1.884-6.06 3.981-8.67 6.291-5.25 4.638-9.39 10.134-12.41 16.489-3.99 8.366-6.22 17.433-6.7 27.2-.01.06-.01.12-.01.18Zm42.41-.18v18.7h39.44v-18.7c0-3.135-.47-5.938-1.41-8.409-.05-.12-.09-.239-.14-.357a17.26 17.26 0 0 0-4.23-6.194 18.879 18.879 0 0 0-1.72-1.615 7.213 7.213 0 0 0-.35-.285c-3.11-2.46-6.84-3.75-11.19-3.871-.23-.006-.45-.009-.68-.009-5.18 0-9.6 1.607-13.26 4.82-.17.155-.35.314-.52.477-.17.158-.34.319-.5.483a17.16 17.16 0 0 0-3.73 5.573c-1.14 2.702-1.71 5.831-1.71 9.387Z" clip-rule="evenodd"/><path fill="#1D1D1D" fill-rule="evenodd" d="M886.323 270.084c1.894 11.717 6.655 24.313 16.845 35.069l.799.844.844.799c12.234 11.591 27.896 17.904 44.873 17.904 16.3 0 33.127-5.629 46.148-19.162 14.998-15.303 18.268-34.684 18.268-48.998v-70.79c6.19-.769 12.76-2.4 19.24-5.384V171.2c0-4.281.32-8.432.97-12.455.01-.083.03-.166.04-.25 1.07-6.534 3-12.725 5.79-18.575a51.027 51.027 0 0 1 8.75-12.92c3.49-3.761 7.6-7.048 12.33-9.86 1.5-.929 3.05-1.784 4.66-2.567-2.53-12.199-8.86-23.424-18.86-32.174C1034.21 71.192 1018.91 67 1004.76 67h-24.816c-23.316 0-53.581 4.529-73.513 28.011-8.12 9.46-13.344 20.177-16.571 31.219 7.525 9.3 11.685 21.003 12.48 35.11.094 1.666.141 3.366.141 5.1v58.82c0 11.968-2.194 22.395-6.581 31.28a54.009 54.009 0 0 1-5.999 9.52 42.174 42.174 0 0 1-3.578 4.024Zm52.821-147.164c-7.12 8.232-10.745 20.722-10.877 37.471-.002.315-.003.631-.003.949v95.2c0 8.387 2.04 14.733 6.12 19.04 4.306 4.08 9.406 6.12 15.3 6.12 6.346 0 11.446-2.04 15.3-6.12 4.08-4.08 6.12-10.427 6.12-19.04v-89.76c0-1.796.053-3.476.16-5.04.226-3.321.693-6.121 1.4-8.401.642-2.068 1.482-3.708 2.52-4.919 1.145-1.431 2.731-2.561 4.76-3.39 1.937-.791 4.278-1.308 7.022-1.55a43.82 43.82 0 0 1 3.858-.16h13.936c5.9 0 10.54-1.36 13.94-4.08 3.63-2.947 5.44-7.027 5.44-12.24 0-4.987-1.81-9.067-5.44-12.24-3.62-3.173-8.27-4.76-13.94-4.76h-24.816c-15.569 0-27.271 2.624-35.107 7.871-2.204 1.475-4.101 3.158-5.693 5.049Zm-11.061 134.245a1.259 1.259 0 0 1 .012-.161 1.429 1.429 0 0 1-.012.161Zm62.565-70.843c-.083.006-.126.007-.127.006a1.25 1.25 0 0 1 .127-.006Z" clip-rule="evenodd"/><path fill="#1D1D1D" fill-rule="evenodd" d="M731.981 281.561v24.619c0 13.477 2.772 31.611 15.802 46.709 8.573 9.934 18.968 15.598 29.3 18.509a93.199 93.199 0 0 1 4.297-.098c5.344 0 10.351.506 15.021 1.517 1.417.307 2.804.66 4.159 1.06 14.418-.854 28.597-6.201 40.222-16.98 10.624-9.669 15.75-21.482 18.128-32.262 24.837-.887 48.179-10.811 64.798-32.002a96.963 96.963 0 0 0 10.728-17.003l-.052-.05c-4.08-4.307-6.12-10.653-6.12-19.04v-95.2c0-16.252 3.228-28.57 9.683-36.954-4.039-10.268-9.832-19.973-17.683-28.758C902.024 75.216 877.7 65.3 851.141 65.3c-11.016 0-21.865 1.78-32.314 5.43-7.738-2.745-15.454-3.73-22.426-3.73-16.227 0-31.582 5.664-43.938 16.704-8.318 7.418-13.338 16.14-16.324 24.703 3.765.421 7.198 2.085 10.3 4.993 3.853 3.4 5.78 7.707 5.78 12.92 0 2.879-.549 5.712-1.646 8.5a28.41 28.41 0 0 1-2.434 4.76l-16.158 25.916v57.385l14.458 22.439c3.173 4.987 4.76 9.973 4.76 14.96 0 5.893-2.04 10.993-6.12 15.3-3.466 3.466-7.832 5.46-13.098 5.981Zm49.12-165.781c-4.08 3.627-6.12 9.973-6.12 19.04v171.36l.001.33c.095 16.327 7.234 24.49 21.419 24.49 6.12 0 11.22-1.927 15.3-5.78 2.404-2.136 4.099-5.216 5.087-9.24.22-.898.405-1.843.555-2.835.206-1.365.346-2.818.419-4.36.039-.842.059-1.71.059-2.605l-.34-44.2h3.4c2.947 6.573 7.594 11.56 13.94 14.96a49.829 49.829 0 0 0 5.1 2.128 45.67 45.67 0 0 0 15.3 2.632c1.856 0 3.66-.08 5.411-.241 11.441-1.048 20.648-5.521 27.623-13.418a43.434 43.434 0 0 0 1.646-1.981c8.387-10.653 12.58-24.253 12.58-40.8v-58.82c0-17.453-4.76-31.507-14.28-42.16-8.626-9.653-19.579-14.933-32.858-15.839l-.005-.001a62.14 62.14 0 0 0-4.197-.14c-4.201 0-8.281.446-12.24 1.337a53.669 53.669 0 0 0-7.82 2.403c-6.12 2.493-11.446 6.007-15.98 10.54-1.345-3.829-3.376-6.785-6.092-8.865-1.61-1.234-3.461-2.16-5.552-2.779-2.108-.624-4.459-.936-7.056-.936-5.893 0-10.993 1.927-15.3 5.78Zm36.88 53.121c-.106.968-.16 1.961-.16 2.979v61.2c.051.243.104.484.16.723.627 2.673 1.594 5.091 2.9 7.255a22.592 22.592 0 0 0 4.42 5.282c4.08 3.173 8.954 4.76 14.62 4.76 3.086 0 5.798-.525 8.134-1.574a15.06 15.06 0 0 0 2.051-1.117c1.732-1.128 3.21-2.611 4.435-4.449.235-.329.462-.666.68-1.012a23.354 23.354 0 0 0 1.518-2.824l.006-.013.051-.113c.2-.447.389-.905.568-1.374l.027-.072.05-.134c.612-1.644 1.095-3.423 1.452-5.338.446-2.394.692-5.001.74-7.82.005-.295.008-.593.008-.892V175.62a54.816 54.816 0 0 0-.16-4.242c-.515-6.524-2.275-11.57-5.28-15.138-1.517-2.022-3.372-3.594-5.565-4.714a17.11 17.11 0 0 0-2.441-1.015 20.826 20.826 0 0 0-4.046-.883 27.108 27.108 0 0 0-3.248-.188c-6.346 0-11.446 2.267-15.3 6.8-3.212 3.59-5.085 7.81-5.62 12.661Zm-43.18 138.001Z" clip-rule="evenodd"/><path fill="#1D1D1D" fill-rule="evenodd" d="M577.05 272.912c1.997 12.647 7.844 24.334 17.263 33.754l.461.46.474.447c10.863 10.224 25.418 17.127 42.391 17.127 4.611 0 8.98-.46 13.109-1.311.961-4.343 2.707-7.639 5.237-9.889 4.307-3.853 9.407-5.78 15.3-5.78 2.906 0 5.581.434 8.027 1.303a70.893 70.893 0 0 0 3.828-3.612c11.194 11.311 26.545 19.289 45.959 19.289 16.047 0 32.674-5.291 45.883-18.217l-.001-.303v-95.952l-10.274-15.946 10.274-16.479V134.82c0-3.165.249-5.998.746-8.5.927-4.666 2.718-8.179 5.374-10.54 3.48-3.113 7.477-4.969 11.991-5.567-2.954-10.861-8.947-20.72-17.71-28.616-10.705-9.843-24.866-16.297-41.183-16.297-20.754 0-36.129 9.611-46.865 21.185a72.794 72.794 0 0 0-8.849-8.257C666.09 68.49 651.974 65.3 639.679 65.3c-16.796 0-33.722 5.912-46.79 19.462-9.474 9.638-15.356 21.47-17.448 34.256 4.389 3.154 8.2 6.722 11.432 10.702a55.733 55.733 0 0 1 7.072 11.22c2.987 6.123 4.99 12.344 6.009 18.663a62.072 62.072 0 0 1 .791 9.897v13.6c0 2.094-.164 4.084-.493 5.97l5.971 8.955-19.034 29.297a68.092 68.092 0 0 0-1.079 1.658 14.821 14.821 0 0 1 6.135 3.42c3.174 2.72 4.76 6.347 4.76 10.88 0 4.987-1.926 10.54-5.78 16.66a33.577 33.577 0 0 1-2.263 3.06c-3.019 3.637-6.989 6.941-11.912 9.912Zm45.969-21.812c-2.493 3.627-3.74 7.593-3.74 11.9 0 5.213 1.813 9.633 5.44 13.26 3.853 3.627 8.16 5.44 12.92 5.44 6.681 0 12.355-2.949 17.022-8.846.206-.261.41-.527.612-.799a39.908 39.908 0 0 0 2.766-4.295l18.02-32.3 5.78-22.1h3.4l5.44 22.44 17.34 31.62c5.213 9.52 12.24 14.28 21.08 14.28 6.573 0 11.9-2.04 15.98-6.12 4.08-4.307 6.12-9.407 6.12-15.3 0-4.987-1.587-9.973-4.76-14.96l-32.64-50.66 34.34-55.08c2.72-4.307 4.08-8.727 4.08-13.26 0-5.213-1.927-9.52-5.78-12.92-3.627-3.4-7.707-5.1-12.24-5.1-6.9 0-12.989 3.646-18.268 10.938l-.13.181a50.786 50.786 0 0 0-2.682 4.181l-18.7 31.62-5.1 24.48h-3.4l-5.78-24.48-19.38-32.64c-2.72-4.533-5.667-8.047-8.84-10.54-3.174-2.493-7.254-3.74-12.24-3.74-6.574 0-11.9 2.153-15.98 6.46-4.08 4.08-6.12 9.067-6.12 14.96 0 5.44 1.586 10.427 4.76 14.96l35.36 53.04-34.68 53.38Zm127.726-106.624Z" clip-rule="evenodd"/><path fill="#1D1D1D" fill-rule="evenodd" d="M446.975 272.955c4.159 7.532 9.359 14.636 15.663 21.197l.15.156.152.155c21.402 21.83 49.529 30.237 78.305 30.237 17.266 0 35.065-2.891 51.263-11.209 12.852-6.599 25.619-16.121 34.707-30.019l.202-.309.196-.312c.636-1.011 1.27-2.057 1.895-3.136-1.668-.868-3.264-2.019-4.789-3.455-3.627-3.627-5.44-8.047-5.44-13.26 0-4.307 1.246-8.273 3.74-11.9l15.007-23.099a56.635 56.635 0 0 0-3.335-9.229c6.342-11.199 9.054-23.565 9.054-35.672v-6.31l-21.406-32.11c-3.174-4.533-4.76-9.52-4.76-14.96v-.034c0-.092 0-.184.002-.275.07-5.759 2.109-10.643 6.118-14.651a20.565 20.565 0 0 1 3.27-2.81c-7.708-12.16-17.861-22.276-29.919-30.253C579.6 69.987 559.767 65.3 539.885 65.3c-19.826 0-39.656 4.236-57.328 15.078-15.006 9.003-27.193 21.407-35.533 36.976 1.381 1.942 2.427 4.127 3.137 6.555.753 2.572 1.129 5.415 1.129 8.531v125.12c0 6.091-1.438 11.223-4.315 15.395ZM477.076 167.3a82.436 82.436 0 0 0-.091 3.9v48.96c0 1.262.028 2.509.083 3.74.075 1.669.2 3.309.377 4.92 1.538 14.053 6.938 25.9 16.2 35.54a53.3 53.3 0 0 0 4.756 4.3c10.872 8.693 25.154 13.04 42.844 13.04.918 0 1.825-.011 2.72-.034 11.487-.289 21.12-2.431 28.9-6.426a67.452 67.452 0 0 0 3.007-1.634 61.358 61.358 0 0 0 3.747-2.333c.479-.323.948-.65 1.406-.981 4.331-3.125 7.731-6.575 10.2-10.352a53.294 53.294 0 0 0 1.589-2.689c1.383-2.507 2.423-4.914 3.121-7.221.713-2.355 1.07-4.605 1.07-6.75 0-4.533-1.587-8.16-4.76-10.88-1.915-1.768-4.165-2.961-6.751-3.58-1.392-.333-2.882-.5-4.469-.5-1.652 0-3.158.167-4.519.5a12.815 12.815 0 0 0-2.961 1.107 10.87 10.87 0 0 0-1.7 1.113c-2.267 1.813-4.647 4.533-7.14 8.16a57.087 57.087 0 0 1-2.145 2.692c-.405.477-.813.94-1.223 1.388a42.88 42.88 0 0 1-3.241 3.199 36.062 36.062 0 0 1-1.891 1.561c-.488.338-1.008.648-1.559.931-2.772 1.419-6.332 2.129-10.681 2.129a31.35 31.35 0 0 1-2.72-.115c-6.23-.543-11.33-2.998-15.3-7.365a24.565 24.565 0 0 1-4.172-6.837c-.988-2.418-1.656-5.073-2.004-7.963a41.167 41.167 0 0 1-.284-4.92v-13.6h54.06c2.678 0 5.172-.254 7.48-.763 4.92-1.084 9-3.323 12.24-6.717 3.86-3.86 6.226-8.671 7.098-14.433.127-.835.222-1.691.285-2.567.065-.886.097-1.793.097-2.72v-13.6c0-.795-.015-1.588-.045-2.38-.34-8.918-2.591-17.645-6.755-26.18a55.717 55.717 0 0 0-11.653-16.213 59.377 59.377 0 0 0-1.776-1.649 63.306 63.306 0 0 0-7.311-5.598c-9.067-6.12-20.173-9.18-33.32-9.18l-.68.002c-13.53.096-24.976 3.042-34.34 8.838-3.165 1.884-6.055 3.981-8.669 6.291-5.248 4.638-9.385 10.134-12.411 16.489-3.984 8.366-6.217 17.433-6.7 27.2l-.009.18Zm42.409-.18v18.7h39.44v-18.7c0-3.135-.47-5.938-1.41-8.409a17.31 17.31 0 0 0-4.37-6.551 19.218 19.218 0 0 0-2.066-1.9c-3.112-2.46-6.844-3.75-11.194-3.871a25.528 25.528 0 0 0-.68-.009c-5.174 0-9.593 1.607-13.255 4.82a20.497 20.497 0 0 0-1.025.96 17.293 17.293 0 0 0-3.732 5.573c-1.139 2.702-1.708 5.831-1.708 9.387Z" clip-rule="evenodd"/><path fill="#1D1D1D" fill-rule="evenodd" d="m382.296 304.414-.367-.408c-6.821-7.579-11.309-16.034-13.978-24.713 1.933-1.024 3.695-2.375 5.284-4.053 4.08-4.533 6.12-10.427 6.12-17.68V68.86c0-1.05-.042-2.07-.128-3.06-.506-5.837-2.503-10.597-5.992-14.28-2.369-2.633-5.12-4.5-8.254-5.605 2.703-9.852 7.852-19.905 16.932-28.474C396.906 3.293 415.457.02 429.53.02c14.103 0 32.657 3.345 47.583 17.631C492.391 32.274 496.33 51.087 496.33 65.8c0 10.677-2.075 23.514-9.052 35.342 3.912 7.927 5.976 16.257 6.704 24.362a50.846 50.846 0 0 0-5.847 6.936 51.948 51.948 0 0 0-4.35 7.48c-4.533 9.52-6.8 19.947-6.8 31.28v48.96c0 14.567 3.675 27.033 11.025 37.4a59.3 59.3 0 0 0 5.635 6.8l.322.325c-1.248 13.591-6.213 27.519-16.835 39.32l-.368.409-.378.399c-12.813 13.525-29.622 19.887-46.856 19.887-17.233 0-34.043-6.362-46.856-19.887l-.378-.399Zm68.8-175.715c-.598-5.528-2.574-10.061-5.926-13.599-4.08-4.533-9.293-6.8-15.64-6.8-6.346 0-11.56 2.267-15.64 6.8-3.36 3.547-5.336 8.092-5.929 13.638a34.828 34.828 0 0 0-.191 3.702v125.12c0 7.253 2.04 13.147 6.12 17.68 4.08 4.307 9.294 6.46 15.64 6.46 6.347 0 11.56-2.153 15.64-6.46 4.08-4.533 6.12-10.427 6.12-17.68V132.44c0-1.294-.065-2.541-.194-3.741Zm2.047-59.04c.125-1.226.187-2.513.187-3.859 0-15.187-7.933-22.78-23.8-22.78-16.093 0-24.14 7.593-24.14 22.78 0 1.393.068 2.722.203 3.987 1.341 12.528 9.32 18.793 23.937 18.793 14.461 0 22.332-6.307 23.613-18.92Z" clip-rule="evenodd"/><path fill="#1D1D1D" fill-rule="evenodd" d="m310.361 304.414-.367-.408c-6.456-7.174-10.823-15.133-13.535-23.324 4.026-1.075 7.499-3.003 10.417-5.782 4.415-4.415 6.783-10.195 7.103-17.34.025-.558.037-1.125.037-1.7a799.834 799.834 0 0 0-.68-7.14l-20.501-109.116V68.86c0-15.52 4.56-32.59 17.524-46.508C322.924 8.617 339.794 1.72 357.595 1.72c17.802 0 34.671 6.896 47.237 20.632 6.386 6.856 10.733 14.478 13.5 22.302-8.628 2.978-12.942 10.026-12.942 21.146 0 1.057.039 2.077.117 3.06.861 10.862 6.477 17.237 16.848 19.125v21.438c-3.221 1.093-6.042 2.986-8.465 5.677-4.08 4.307-6.12 10.087-6.12 17.34v125.12c0 7.253 2.04 13.147 6.12 17.68 1.59 1.678 3.351 3.029 5.285 4.053-2.669 8.679-7.157 17.134-13.978 24.712l-.368.409-.378.399c-9.492 10.02-21.179 16.109-33.606 18.591a70.032 70.032 0 0 0-13.25-8.113c-10.812-5.047-23.697-7.571-38.655-7.571h-5.268a65.285 65.285 0 0 1-2.933-2.907l-.378-.399ZM373.235 51.52c-4.08-4.533-9.293-6.8-15.64-6.8-6.346 0-11.56 2.267-15.64 6.8-4.08 4.307-6.12 10.087-6.12 17.34v188.7c0 7.253 2.04 13.147 6.12 17.68 4.08 4.307 9.294 6.46 15.64 6.46 6.347 0 11.56-2.153 15.64-6.46 4.08-4.533 6.12-10.427 6.12-17.68V68.86c0-7.253-2.04-13.033-6.12-17.34Z" clip-rule="evenodd"/><path fill="#1D1D1D" fill-rule="evenodd" d="m143.523 307.967-.472-.445c-13.509-12.76-19.595-29.462-19.595-46.222 0-5.294.779-10.131 1.446-13.524l31.94-172.955.033-.169c3.722-19.285 12.084-38.548 28.256-53.25C200.796 7.163 220.163.02 240.916.02c20.156 0 39.111 6.78 54.539 20.533 16.342 14.112 24.923 32.854 28.515 51.895l11.865 63.152v121.96c0 7.253 2.04 13.147 6.12 17.68 2.968 3.133 6.536 5.126 10.704 5.98-3.144 8.599-8.125 16.834-15.377 24.086l-.371.37-.38.362a68.065 68.065 0 0 1-2.868 2.581c-4.662-.599-9.569-.899-14.723-.899h-28.9c-.631 0-1.252.011-1.864.033-9.06.322-16.032 3.031-20.916 8.127a26.33 26.33 0 0 0-3.536 4.608c-8.834-3.229-17.257-8.451-24.554-16.122a67.841 67.841 0 0 1-2.366-2.622 62.972 62.972 0 0 1-6.878 7.099c-12.197 10.762-27.142 15.857-42.39 15.857-15.515 0-30.922-5.097-43.528-16.301l-.485-.432Zm118.133-54.147c2.72 18.587 11.56 27.88 26.52 27.88 7.707 0 13.94-2.267 18.7-6.8 4.76-4.76 7.14-11.107 7.14-19.04a799.834 799.834 0 0 0-.68-7.14l-31.62-168.3a68.304 68.304 0 0 0-.811-3.734c-2.521-10.198-7.124-18.134-13.809-23.806-7.253-6.573-15.98-9.86-26.18-9.86-.456 0-.909.006-1.36.02a43.62 43.62 0 0 0-4.76.394c-7.853 1.093-14.766 4.355-20.74 9.786-6.318 5.744-10.858 13.671-13.618 23.782a76.023 76.023 0 0 0-.906 3.686 83.987 83.987 0 0 0-.436 2.112l-31.96 173.06c-.453 2.267-.68 4.08-.68 5.44 0 6.12 2.04 11.107 6.12 14.96 4.08 3.627 9.067 5.44 14.96 5.44 5.44 0 10.087-1.7 13.94-5.1 3.405-3.005 5.749-7.16 7.03-12.466a38.412 38.412 0 0 0 .45-2.154l4.42-25.16h45.9l2.38 17Zm-22.1-175.1h-4.76l-1.02 20.4-14.96 100.98h35.36l-13.6-100.64-1.02-20.74Z" clip-rule="evenodd"/><path fill="#ED97E9" fill-rule="evenodd" d="M1362.01 390.972c-5.14 1.991-7.69 7.772-5.7 12.912l23.44 60.493 23.44 60.492c2 5.14 7.78 7.692 12.92 5.701l192.94-74.761a10.013 10.013 0 0 0 5.93-6.357l24.45-79.052a9.978 9.978 0 0 0-4.47-11.554l-71.34-41.933a9.993 9.993 0 0 0-8.67-.702l-192.94 74.761Zm246.75-4.17c6.47.081 11.79-5.103 11.87-11.579.08-6.476-5.1-11.792-11.58-11.874-6.48-.081-11.79 5.103-11.87 11.579-.09 6.477 5.1 11.793 11.58 11.874Z" clip-rule="evenodd"/><path fill="#1D1D1D" d="M1418.68 447.142c4.76-1.816 8.03.052 9.03 2.676 1.04 2.721-.16 6.294-4.92 8.11l-9.62 3.669c-4.76 1.816-7.85.433-9.07-2.774-1-2.623.2-6.196 4.96-8.012l9.62-3.669Zm33.4-29.213c-1.93-5.053-5.03-5.315-7.85-4.24-3.5 1.334-5.31 3.584-3.42 8.539l4.96 13.022c1.67 4.372 4.44 6.098 8.23 4.652 3.6-1.371 4.68-4.676 3.08-8.854l-5-13.119Zm-19.13 24.55-6.38-16.714c-4.29-11.272 3.65-18.754 12.3-22.052l2.43-.927c8.94-3.409 18.62-2.538 22.55 7.762l13.67 35.857c4.19 10.98.11 19.548-10.19 23.477l-15.74 6.003c-3.11 1.186-5.48-.359-6.44-2.885-.97-2.527-.23-5.257 2.88-6.443l15.06-5.745c3.79-1.445 5.33-4.704 3.63-9.174l-4.26-11.174-1.17.444c.04 4.772-2.36 8.692-8.78 11.138-6.02 2.298-15.52 1.025-19.56-9.567Zm49.38-55.898c10.49-4.002 20.1.46 24.47 11.926l11.86 31.096c4.37 11.466.18 21.191-10.32 25.194-10.49 4.002-20-.497-24.37-11.964l-11.86-31.095c-4.37-11.466-.28-21.154 10.22-25.157Zm16.34 55.099c1.07 2.818 3.67 3.497 5.71 2.719s3.52-3.014 2.45-5.832l-13.79-36.148c-1.07-2.818-3.71-3.595-5.75-2.817-2.04.779-3.49 3.112-2.41 5.93l13.79 36.148Zm33.01-40.308c-8.45 3.224-15.54-.193-18.91-9.036l-.37-.972c-3.38-8.843-.36-16.114 8.09-19.338 8.55-3.262 15.64.156 19.02 8.998l.37.972c3.37 8.843.36 16.114-8.2 19.376Zm.89 32.386 10.09-26.666c2.01-5.221 3.08-7.966 4.07-14.13l4.35-26.256c.6-3.68 1.57-6.387 4.58-7.536 5.54-2.113 8.86 3.967 6.93 8.823l-10.54 26.947c-1.9 4.953-3 7.601-3.94 13.303l-4.37 26.487c-.75 4.739-1.69 6.656-4.71 7.804-4.66 1.779-8.29-3.958-6.46-8.776Zm-9.54-43.999c.81 2.138 3.15 3.025 5.1 2.284 1.94-.741 3.19-3 2.38-5.138l-1.67-4.373c-.82-2.137-3.25-2.988-5.2-2.247-1.94.741-3.1 2.963-2.28 5.101l1.67 4.373Zm32.23 31.115-.52-1.36c-3.3-8.649-.28-15.92 8.17-19.145 8.55-3.261 15.65.156 18.94 8.805l.52 1.36c3.3 8.649.29 15.92-8.26 19.182-8.46 3.224-15.55-.193-18.85-8.842Zm10.19-2.771c.81 2.138 3.15 3.025 5.1 2.284 1.94-.741 3.19-3 2.38-5.138l-1.67-4.373c-.81-2.137-3.25-2.988-5.2-2.247-1.94.741-3.1 2.963-2.28 5.101l1.67 4.373Z"/><path fill="#FF2722" fill-rule="evenodd" d="m93.232 156.383 73.553 24.154c-2.877 8.761 1.893 18.196 10.655 21.073 8.761 2.878 18.196-1.892 21.074-10.654l74.994 24.628c.922 9.356 3.921 29.415 9.082 45.322 7.545 23.248.473 52.082-12.174 68.699-5.155 6.774-12.628 12.521-20.106 18.272-10.866 8.357-21.742 16.721-25.53 28.255l-79.011-25.947a16.766 16.766 0 0 0 1.595-3.47c2.877-8.762-1.893-18.197-10.654-21.074-8.762-2.878-18.197 1.893-21.074 10.654a16.707 16.707 0 0 0-.773 3.741L38.014 314.8c2.842-8.654-1.215-30.357-6.198-44.376-9.965-28.037 1.875-64.093 27.232-82.927 15.229-11.31 29.491-24.933 34.184-31.114Z" clip-rule="evenodd"/><path fill="#FFE600" d="M58.825 251.338c1.17-3.564 4.783-7.139 9.605-5.555 4.298 1.411 6.166 5.625 4.858 9.608-1.343 4.088.738 9.068 6.189 10.858 5.032 1.653 8.929-.668 10.168-4.441 1.136-3.46-.486-7.36-6.24-14.592l-4.456-5.527c-5.754-7.232-10.43-15.271-7.23-25.019 3.237-9.854 13.364-15.586 27.41-10.973 13.628 4.475 18.249 15.863 15.53 24.144-1.48 4.508-4.855 6.651-8.839 5.343-3.773-1.239-5.987-4.753-4.61-8.946 1.446-4.403-.666-8.58-5.383-10.129-4.508-1.481-8.27.071-9.474 3.74-.93 2.831-.077 6.246 4.45 11.913l4.56 5.562c7.542 9.212 12.398 18.472 8.75 29.583-3.821 11.636-15.207 16.955-28.939 12.445-13.837-4.544-20.342-15.854-16.349-28.014Zm59.729 34.944c-2.008 3.637-5.247 5.012-8.811 3.842-3.773-1.239-5.782-5.731-3.463-9.963l27.098-49.631c4.292-7.764 10.736-10.061 16.816-8.064 6.289 2.065 9.908 7.666 8.897 15.696l-7.223 54.53c-.777 5.9-5.855 9.342-10.782 7.724-4.822-1.583-6.652-5.204-5.668-11.384l.815-4.958-14.046-4.612-3.633 6.82Zm9.132-17.556 10.692 3.511 5.657-30.31 2.44-8.489-1.782-.585-3.174 8.248-13.833 27.625Zm51.051-27.016c1.584-4.822 5.689-7.422 9.882-6.045 4.193 1.377 5.958 5.905 4.374 10.726l-16.419 50.002 13.207 4.337c4.298 1.411 7.629 5.06 6.08 9.777-1.756 5.346-6.429 5.786-10.727 4.374l-17.296-5.679c-7.233-2.376-8.653-7.952-6.657-14.032l17.556-53.46Zm44.486 13.68c1.24-3.774 5.414-6.584 9.502-5.241l20.755 6.815c5.137 1.687 6.685 4.751 5.722 7.686-1.171 3.564-4.097 4.693-9.233 3.007l-13.522-4.441-5.818 17.715 14.047 4.613c3.669 1.205 5.532 4.372 4.499 7.516-.998 3.04-4.41 4.591-8.079 3.386l-14.047-4.613-6.575 20.022 14.571 4.784c4.088 1.343 6.408 5.24 5.169 9.014-1.343 4.088-5.418 5.537-9.506 4.194l-21.804-7.16c-4.088-1.342-5.784-6.08-4.2-10.902l18.519-56.395Z"/></svg>