<svg xmlns="http://www.w3.org/2000/svg" width="800" height="157" fill="none"><g clip-path="url(#a)"><rect width="112.15" height="157.009" y="-.002" fill="#F0E9E1" rx="7.477"/><path fill="#00378A" d="M16.171 16.16h2.506c1.036 0 1.923.169 2.66.505a3.612 3.612 0 0 1 1.708 1.61c.401.728.602 1.661.602 2.8 0 .99-.177 1.853-.532 2.59a3.774 3.774 0 0 1-1.568 1.694c-.69.401-1.544.602-2.562.602h-2.814v-9.8Zm2.66 8.723c.747 0 1.377-.13 1.89-.392.523-.261.92-.677 1.19-1.246.27-.57.406-1.302.406-2.198 0-.84-.121-1.54-.364-2.1a2.592 2.592 0 0 0-1.148-1.274c-.523-.299-1.2-.448-2.03-.448h-1.33v7.658h1.386Zm7.8-5.67h1.204v6.748h-1.204v-6.748Zm-1.61 5.754h4.2v.994h-4.2v-.994Zm.294-5.754h1.918v.994h-1.918v-.994Zm1.12-2.758h1.456v1.526h-1.456v-1.526Zm7.168 9.716c-.598 0-1.11-.103-1.54-.308a2.35 2.35 0 0 1-.994-.854 2.398 2.398 0 0 1-.364-1.274h1.176c.018.467.177.835.476 1.106.308.261.728.392 1.26.392.467 0 .84-.098 1.12-.294.29-.205.434-.476.434-.812 0-.27-.098-.49-.294-.658-.187-.177-.48-.303-.882-.378l-1.022-.196c-.644-.121-1.148-.345-1.512-.672a1.6 1.6 0 0 1-.546-1.246c0-.383.112-.723.336-1.022.224-.299.532-.532.924-.7a3.327 3.327 0 0 1 1.358-.266c.541 0 1.008.089 1.4.266.392.168.695.415.91.742.224.317.35.705.378 1.162h-1.19c-.047-.401-.21-.705-.49-.91-.27-.205-.635-.308-1.092-.308-.401 0-.724.089-.966.266a.827.827 0 0 0-.364.7c0 .261.093.467.28.616.187.15.476.261.868.336l1.05.196c.644.121 1.143.34 1.498.658.364.317.546.747.546 1.288 0 .401-.112.77-.336 1.106-.224.327-.546.588-.966.784-.41.187-.896.28-1.456.28Zm7.826 0c-.626 0-1.19-.135-1.694-.406a2.968 2.968 0 0 1-1.204-1.218c-.299-.541-.448-1.2-.448-1.974 0-.7.15-1.32.448-1.862a3.23 3.23 0 0 1 1.218-1.26 3.382 3.382 0 0 1 1.75-.462c.522 0 .998.103 1.428.308.43.205.774.495 1.036.868.261.373.415.812.462 1.316h-1.246c-.056-.457-.234-.826-.532-1.106-.299-.29-.696-.434-1.19-.434-.42 0-.794.117-1.12.35a2.208 2.208 0 0 0-.742.938 3.29 3.29 0 0 0-.266 1.344c0 .532.088.999.266 1.4.186.401.443.714.77.938.326.215.704.322 1.134.322.494 0 .896-.135 1.204-.406.317-.27.508-.649.574-1.134h1.19a2.747 2.747 0 0 1-.448 1.302 2.397 2.397 0 0 1-1.022.868c-.439.205-.962.308-1.568.308Zm7.65 0c-.645 0-1.219-.15-1.723-.448a3.067 3.067 0 0 1-1.176-1.26c-.28-.55-.42-1.18-.42-1.89 0-.69.14-1.307.42-1.848a3.05 3.05 0 0 1 1.176-1.274c.504-.308 1.078-.462 1.722-.462a3.21 3.21 0 0 1 1.708.462 3.05 3.05 0 0 1 1.176 1.274c.29.541.434 1.157.434 1.848 0 .71-.145 1.34-.434 1.89-.28.541-.672.961-1.176 1.26a3.286 3.286 0 0 1-1.708.448Zm0-.938c.42 0 .783-.112 1.091-.336.317-.224.56-.537.728-.938.168-.401.252-.863.252-1.386 0-.793-.191-1.428-.574-1.904-.373-.485-.873-.728-1.498-.728-.41 0-.775.112-1.092.336-.317.215-.56.523-.728.924-.168.392-.252.85-.252 1.372 0 .523.084.985.252 1.386.168.401.406.714.714.938a1.87 1.87 0 0 0 1.106.336Zm4.44-6.02h1.316l1.722 4.886c.075.215.15.434.224.658l.084-.252c.046-.14.098-.275.154-.406l1.666-4.886h1.274l-2.576 6.748h-1.274l-2.59-6.748Zm10.935 6.958c-.681 0-1.27-.14-1.764-.42a2.85 2.85 0 0 1-1.134-1.232c-.261-.541-.392-1.195-.392-1.96 0-.681.14-1.293.42-1.834.28-.541.663-.966 1.148-1.274a2.992 2.992 0 0 1 1.638-.462c.663 0 1.227.15 1.694.448.467.29.821.705 1.064 1.246.252.532.378 1.162.378 1.89v.238h-5.124c.01.504.103.938.28 1.302.187.364.434.644.742.84.317.187.672.28 1.064.28.457 0 .845-.103 1.162-.308.327-.215.527-.565.602-1.05h1.204c-.047.42-.191.803-.434 1.148-.233.345-.57.625-1.008.84-.43.205-.943.308-1.54.308Zm1.764-4.214c0-.616-.163-1.106-.49-1.47-.317-.364-.77-.546-1.358-.546-.55 0-1.003.191-1.358.574-.355.383-.55.863-.588 1.442h3.794Zm3.533-2.744h1.204v1.274c.196-.43.504-.784.924-1.064.42-.28.956-.42 1.61-.42.186 0 .354.014.504.042v1.176a4.905 4.905 0 0 0-.602-.042c-.542 0-.994.089-1.358.266a1.815 1.815 0 0 0-.812.798c-.178.345-.266.77-.266 1.274v3.444H69.75v-6.748ZM19.713 42.17c-.812 0-1.53-.205-2.156-.616-.616-.42-1.096-1.013-1.442-1.778-.345-.775-.518-1.68-.518-2.716 0-1.045.173-1.95.518-2.716.346-.775.826-1.367 1.442-1.778.626-.42 1.344-.63 2.156-.63s1.526.21 2.142.63c.625.41 1.106 1.003 1.442 1.778.345.765.518 1.67.518 2.716 0 1.036-.173 1.941-.518 2.716-.345.765-.83 1.358-1.456 1.778-.616.41-1.325.616-2.128.616Zm0-1.064a2.29 2.29 0 0 0 1.442-.476c.42-.327.742-.793.966-1.4.234-.616.35-1.34.35-2.17 0-.84-.116-1.563-.35-2.17-.224-.607-.546-1.069-.966-1.386a2.248 2.248 0 0 0-1.442-.49c-.55 0-1.036.163-1.456.49-.42.317-.747.78-.98 1.386-.224.607-.336 1.33-.336 2.17 0 .83.112 1.554.336 2.17.233.607.555 1.073.966 1.4.42.317.91.476 1.47.476Zm5.778-5.894h1.204v.91c.187-.317.471-.583.854-.798a2.524 2.524 0 0 1 1.274-.336c.523 0 .97.107 1.344.322.383.215.672.532.868.952.205.41.308.9.308 1.47v4.228H30.14v-4.074c0-.653-.121-1.139-.364-1.456-.233-.327-.62-.49-1.162-.49a1.84 1.84 0 0 0-1.022.28 1.83 1.83 0 0 0-.672.714 2.19 2.19 0 0 0-.224.994v4.032h-1.204v-6.748Zm10.894 6.958c-.681 0-1.27-.14-1.764-.42a2.85 2.85 0 0 1-1.134-1.232c-.261-.541-.392-1.195-.392-1.96 0-.681.14-1.293.42-1.834.28-.541.663-.966 1.148-1.274a2.992 2.992 0 0 1 1.638-.462c.663 0 1.227.15 1.694.448.467.29.822.705 1.064 1.246.252.532.378 1.162.378 1.89v.238h-5.124c.01.504.103.938.28 1.302.187.364.434.644.742.84.318.187.672.28 1.064.28.457 0 .845-.103 1.162-.308.327-.215.528-.565.602-1.05h1.204c-.046.42-.191.803-.434 1.148-.233.345-.57.625-1.008.84-.43.205-.942.308-1.54.308Zm1.764-4.214c0-.616-.163-1.106-.49-1.47-.317-.364-.77-.546-1.358-.546-.55 0-1.003.191-1.358.574-.354.383-.55.863-.588 1.442h3.794Zm8.894-5.796h3.57c.625 0 1.185.089 1.68.266.504.168.91.462 1.218.882.308.41.462.957.462 1.638 0 .681-.15 1.227-.448 1.638-.299.41-.7.705-1.204.882-.495.168-1.064.252-1.708.252h-2.296v4.242h-1.274v-9.8Zm3.556 4.494c.719 0 1.241-.15 1.568-.448.336-.299.504-.719.504-1.26 0-.55-.168-.975-.504-1.274-.327-.299-.85-.448-1.568-.448h-2.282v3.43H50.6Zm5.254-1.442h1.204v1.274c.196-.43.504-.784.924-1.064.42-.28.957-.42 1.61-.42.187 0 .355.014.504.042v1.176a4.904 4.904 0 0 0-.602-.042c-.541 0-.994.089-1.358.266a1.816 1.816 0 0 0-.812.798c-.177.345-.266.77-.266 1.274v3.444h-1.204v-6.748Zm7.457 0h1.204v6.748H63.31v-6.748Zm-1.61 5.754h4.2v.994h-4.2v-.994Zm.294-5.754h1.918v.994h-1.918v-.994Zm1.12-2.758h1.456v1.526h-1.456v-1.526Zm7.546 9.716c-.626 0-1.19-.135-1.694-.406a2.968 2.968 0 0 1-1.204-1.218c-.299-.541-.448-1.2-.448-1.974 0-.7.15-1.32.448-1.862a3.23 3.23 0 0 1 1.218-1.26 3.382 3.382 0 0 1 1.75-.462c.522 0 .998.103 1.428.308.43.205.774.495 1.036.868.261.373.415.812.462 1.316H72.41c-.056-.457-.234-.826-.532-1.106-.299-.29-.696-.434-1.19-.434-.42 0-.794.117-1.12.35a2.208 2.208 0 0 0-.742.938 3.29 3.29 0 0 0-.266 1.344c0 .532.088.999.266 1.4.186.401.443.714.77.938.326.215.704.322 1.134.322.494 0 .896-.135 1.204-.406.317-.27.508-.649.574-1.134h1.19a2.747 2.747 0 0 1-.448 1.302 2.397 2.397 0 0 1-1.022.868c-.439.205-.962.308-1.568.308Zm7.72 0c-.682 0-1.27-.14-1.765-.42a2.852 2.852 0 0 1-1.134-1.232c-.261-.541-.392-1.195-.392-1.96 0-.681.14-1.293.42-1.834.28-.541.663-.966 1.148-1.274a2.993 2.993 0 0 1 1.638-.462c.663 0 1.227.15 1.694.448.467.29.822.705 1.064 1.246.252.532.378 1.162.378 1.89v.238h-5.124c.01.504.103.938.28 1.302.187.364.434.644.742.84.318.187.672.28 1.064.28.457 0 .845-.103 1.162-.308.327-.215.527-.565.602-1.05h1.204c-.047.42-.191.803-.434 1.148-.233.345-.57.625-1.008.84-.43.205-.942.308-1.54.308Zm1.763-4.214c0-.616-.163-1.106-.49-1.47-.317-.364-.77-.546-1.358-.546-.55 0-1.003.191-1.358.574-.355.383-.55.863-.588 1.442h3.794ZM19.167 57.17a3.52 3.52 0 0 1-1.694-.406 2.968 2.968 0 0 1-1.204-1.218c-.298-.541-.448-1.2-.448-1.974 0-.7.15-1.32.448-1.862a3.23 3.23 0 0 1 1.218-1.26 3.382 3.382 0 0 1 1.75-.462c.523 0 .999.103 1.428.308.43.205.775.495 1.036.868s.415.812.462 1.316h-1.246c-.056-.457-.233-.826-.532-1.106-.299-.29-.695-.434-1.19-.434-.42 0-.793.117-1.12.35a2.209 2.209 0 0 0-.742.938c-.177.401-.266.85-.266 1.344 0 .532.089.999.266 1.4.187.401.444.714.77.938.327.215.705.322 1.134.322.495 0 .896-.135 1.204-.406.318-.27.509-.649.574-1.134h1.19a2.746 2.746 0 0 1-.448 1.302 2.396 2.396 0 0 1-1.022.868c-.438.205-.961.308-1.568.308Zm4.863-10.01h1.19v3.962c.197-.327.481-.597.855-.812a2.56 2.56 0 0 1 1.274-.322c.522 0 .975.107 1.357.322.383.215.672.532.869.952.205.41.308.9.308 1.47v4.228h-1.204v-4.074c0-.653-.122-1.139-.364-1.456-.243-.327-.64-.49-1.19-.49-.392 0-.733.089-1.023.266a1.83 1.83 0 0 0-.657.728c-.15.299-.224.63-.224.994v4.032h-1.19v-9.8Zm9.985 10.01c-.44 0-.84-.084-1.204-.252a2.03 2.03 0 0 1-.84-.714 1.965 1.965 0 0 1-.308-1.092c0-.616.21-1.092.63-1.428.42-.345.966-.57 1.638-.672l1.498-.224c.252-.037.429-.107.532-.21.112-.112.168-.27.168-.476 0-.364-.131-.649-.392-.854-.252-.205-.593-.308-1.022-.308-.514 0-.91.126-1.19.378-.28.243-.43.579-.448 1.008h-1.204c.018-.42.14-.807.364-1.162.224-.355.54-.64.952-.854.42-.215.9-.322 1.442-.322.578 0 1.064.103 1.456.308.4.196.704.485.91.868.205.373.308.821.308 1.344v4.452h-1.148v-.91c-.168.345-.444.62-.826.826-.374.196-.812.294-1.316.294Zm.168-.938c.364 0 .69-.075.98-.224a1.8 1.8 0 0 0 .7-.644c.177-.28.266-.597.266-.952v-.994c-.038.056-.122.107-.252.154a4.203 4.203 0 0 1-.532.14l-.98.182c-.448.084-.803.224-1.064.42-.262.187-.392.453-.392.798 0 .336.116.607.35.812.242.205.55.308.924.308Zm5.315-6.02h1.204v.91c.187-.317.471-.583.854-.798a2.525 2.525 0 0 1 1.274-.336c.523 0 .97.107 1.344.322.383.215.672.532.868.952.206.41.308.9.308 1.47v4.228h-1.204v-4.074c0-.653-.121-1.139-.364-1.456-.233-.327-.62-.49-1.162-.49-.392 0-.732.093-1.022.28-.29.177-.513.415-.672.714-.15.299-.224.63-.224.994v4.032h-1.204v-6.748Zm7.94 0h1.204v.91c.187-.317.472-.583.854-.798a2.524 2.524 0 0 1 1.274-.336c.523 0 .97.107 1.344.322.383.215.672.532.868.952.206.41.308.9.308 1.47v4.228h-1.204v-4.074c0-.653-.121-1.139-.364-1.456-.233-.327-.62-.49-1.162-.49-.392 0-.732.093-1.022.28a1.83 1.83 0 0 0-.672.714 2.19 2.19 0 0 0-.224.994v4.032h-1.204v-6.748Zm10.894 6.958c-.681 0-1.269-.14-1.764-.42a2.852 2.852 0 0 1-1.134-1.232c-.261-.541-.392-1.195-.392-1.96 0-.681.14-1.293.42-1.834.28-.541.663-.966 1.148-1.274a2.993 2.993 0 0 1 1.638-.462c.663 0 1.228.15 1.694.448.467.29.822.705 1.064 1.246.252.532.378 1.162.378 1.89v.238H56.26c.01.504.103.938.28 1.302.187.364.434.644.742.84.318.187.672.28 1.064.28.458 0 .845-.103 1.162-.308.327-.215.528-.565.602-1.05h1.204c-.046.42-.191.803-.434 1.148-.233.345-.569.625-1.008.84-.429.205-.942.308-1.54.308Zm1.764-4.214c0-.616-.163-1.106-.49-1.47-.317-.364-.77-.546-1.358-.546-.55 0-1.003.191-1.358.574-.354.383-.55.863-.588 1.442h3.794Zm4.513-5.796h1.19v9.8h-1.19v-9.8Zm-1.372 0h1.96v.994h-1.96v-.994Zm-.28 8.806h4.256v.994h-4.256v-.994Z"/><rect width="112.15" height="73.916" x="171.963" y="-.002" fill="#F0E9E1" rx="7.477"/><path fill="#00378A" d="M190.612 16.16h1.568l3.542 9.8h-1.372l-2.66-7.685a1.915 1.915 0 0 1-.056-.14 3.695 3.695 0 0 0-.042-.154 53.73 53.73 0 0 0-.224-.658l-.098.322c-.028.093-.065.2-.112.322l-.098.308-2.66 7.686h-1.316l3.528-9.8Zm-1.526 5.825h4.606v1.064h-4.606v-1.064Zm10.411 4.186c-.598 0-1.13-.14-1.596-.42-.467-.28-.836-.69-1.106-1.232-.271-.541-.406-1.185-.406-1.932 0-.681.13-1.293.392-1.834.261-.55.625-.98 1.092-1.288.476-.317 1.026-.476 1.652-.476.513 0 .961.117 1.344.35.382.224.658.485.826.784V16.16h1.204v9.8h-1.204v-.937c-.187.327-.476.602-.868.826a2.724 2.724 0 0 1-1.33.322Zm.21-.938c.401 0 .756-.107 1.064-.322.317-.224.564-.537.742-.938.177-.401.266-.868.266-1.4 0-.803-.192-1.442-.574-1.918a1.832 1.832 0 0 0-1.498-.714c-.402 0-.761.112-1.078.336-.308.215-.551.523-.728.924-.168.401-.252.863-.252 1.386 0 .523.084.985.252 1.386.168.401.406.714.714.938.317.215.681.322 1.092.322Zm7.921.938c-.597 0-1.129-.14-1.596-.42-.466-.28-.835-.69-1.106-1.232-.27-.541-.406-1.185-.406-1.932 0-.681.131-1.293.392-1.834.262-.55.626-.98 1.092-1.288.476-.317 1.027-.476 1.652-.476.514 0 .962.117 1.344.35.383.224.658.485.826.784V16.16h1.204v9.8h-1.204v-.937c-.186.327-.476.602-.868.826a2.722 2.722 0 0 1-1.33.322Zm.21-.938a1.81 1.81 0 0 0 1.064-.322 2.2 2.2 0 0 0 .742-.938c.178-.401.266-.868.266-1.4 0-.803-.191-1.442-.574-1.918a1.83 1.83 0 0 0-1.498-.714c-.401 0-.76.112-1.078.336-.308.215-.55.523-.728.924-.168.401-.252.863-.252 1.386 0 .523.084.985.252 1.386.168.401.406.714.714.938.318.215.682.322 1.092.322Zm14.643.84c-.541 0-1.003-.08-1.386-.238a1.868 1.868 0 0 1-.868-.784c-.205-.355-.308-.821-.308-1.4v-3.444h-1.904v-.994h1.904v-2.226h1.204v2.226h2.198v.994h-2.198v3.304c0 .355.052.64.154.854a.97.97 0 0 0 .504.476c.234.093.551.14.952.14.196 0 .43-.023.7-.07v1.064a5.389 5.389 0 0 1-.952.098Zm5.543.098c-.644 0-1.218-.15-1.722-.448a3.067 3.067 0 0 1-1.176-1.26c-.28-.55-.42-1.18-.42-1.89 0-.69.14-1.307.42-1.848a3.05 3.05 0 0 1 1.176-1.274c.504-.308 1.078-.462 1.722-.462.635 0 1.204.154 1.708.462a3.05 3.05 0 0 1 1.176 1.274c.289.541.434 1.157.434 1.848 0 .71-.145 1.34-.434 1.89-.28.541-.672.961-1.176 1.26a3.285 3.285 0 0 1-1.708.448Zm0-.938c.42 0 .784-.112 1.092-.336.317-.224.56-.537.728-.938.168-.401.252-.863.252-1.386 0-.793-.191-1.428-.574-1.904-.373-.485-.873-.728-1.498-.728-.411 0-.775.112-1.092.336-.317.215-.56.523-.728.924-.168.392-.252.85-.252 1.372 0 .523.084.985.252 1.386.168.401.406.714.714.938.317.224.686.336 1.106.336ZM191.438 42.17c-.467 0-.896-.103-1.288-.308a2.516 2.516 0 0 1-.924-.84v.938h-1.19v-9.8h1.19v3.963c.233-.327.541-.597.924-.812a2.666 2.666 0 0 1 1.302-.322c.644 0 1.199.154 1.666.462a2.99 2.99 0 0 1 1.078 1.288c.252.541.378 1.157.378 1.848 0 .7-.131 1.32-.392 1.862a2.975 2.975 0 0 1-1.092 1.274c-.476.299-1.027.448-1.652.448Zm-.196-.938c.411 0 .77-.112 1.078-.336.317-.224.56-.532.728-.924.177-.401.266-.863.266-1.386 0-.513-.089-.97-.266-1.372a2.116 2.116 0 0 0-.728-.938 1.783 1.783 0 0 0-1.078-.336 1.88 1.88 0 0 0-1.078.322c-.317.205-.565.509-.742.91-.168.401-.252.868-.252 1.4 0 .523.089.985.266 1.386.177.401.42.714.728.938.317.224.677.336 1.078.336Zm7.137.938a2.84 2.84 0 0 1-1.204-.252 2.038 2.038 0 0 1-.84-.714 1.968 1.968 0 0 1-.308-1.092c0-.616.21-1.092.63-1.428.42-.345.966-.57 1.638-.672l1.498-.224c.252-.037.43-.107.532-.21.112-.112.168-.27.168-.476 0-.364-.13-.649-.392-.854-.252-.205-.592-.308-1.022-.308-.513 0-.91.126-1.19.378-.28.243-.429.579-.448 1.008h-1.204c.019-.42.14-.807.364-1.162a2.42 2.42 0 0 1 .952-.854c.42-.215.901-.322 1.442-.322.579 0 1.064.103 1.456.308.402.196.705.485.91.868.206.373.308.821.308 1.344v4.452h-1.148v-.91c-.168.345-.443.62-.826.826-.373.196-.812.294-1.316.294Zm.168-.938c.364 0 .691-.075.98-.224.299-.159.532-.373.7-.644.178-.28.266-.597.266-.952v-.994c-.037.056-.121.107-.252.154a4.14 4.14 0 0 1-.532.14l-.98.182c-.448.084-.802.224-1.064.42-.261.187-.392.453-.392.798 0 .336.117.607.35.812.243.205.551.308.924.308Zm7.976.938c-.598 0-1.111-.103-1.54-.308a2.346 2.346 0 0 1-.994-.854c-.234-.364-.355-.789-.364-1.274h1.176c.018.467.177.835.476 1.106.308.261.728.392 1.26.392.466 0 .84-.098 1.12-.294.289-.205.434-.476.434-.812 0-.27-.098-.49-.294-.658-.187-.177-.481-.303-.882-.378l-1.022-.196c-.644-.121-1.148-.345-1.512-.672a1.6 1.6 0 0 1-.546-1.246c0-.383.112-.723.336-1.022.224-.299.532-.532.924-.7a3.326 3.326 0 0 1 1.358-.266c.541 0 1.008.089 1.4.266a2 2 0 0 1 .91.742c.224.317.35.705.378 1.162h-1.19c-.047-.401-.21-.705-.49-.91-.271-.205-.635-.308-1.092-.308-.402 0-.724.089-.966.266a.827.827 0 0 0-.364.7c0 .261.093.467.28.616.186.15.476.261.868.336l1.05.196c.644.121 1.143.34 1.498.658.364.317.546.747.546 1.288 0 .401-.112.77-.336 1.106-.224.327-.546.588-.966.784-.411.187-.896.28-1.456.28Zm5.012-10.01h1.204v5.922c.168-.187.345-.364.532-.532l2.296-2.338h1.512l-4.34 4.242v2.506h-1.204v-9.8Zm1.652 6.566.826-.798 3.458 4.032h-1.638l-2.646-3.234Zm8.403 3.444c-.682 0-1.27-.14-1.764-.42a2.844 2.844 0 0 1-1.134-1.232c-.262-.541-.392-1.195-.392-1.96 0-.681.14-1.293.42-1.834a3.23 3.23 0 0 1 1.148-1.274 2.99 2.99 0 0 1 1.638-.462c.662 0 1.227.15 1.694.448.466.29.821.705 1.064 1.246.252.532.378 1.162.378 1.89v.238h-5.124c.009.504.102.938.28 1.302.186.364.434.644.742.84.317.187.672.28 1.064.28.457 0 .844-.103 1.162-.308.326-.215.527-.565.602-1.05h1.204c-.047.42-.192.803-.434 1.148-.234.345-.57.625-1.008.84-.43.205-.943.308-1.54.308Zm1.764-4.214c0-.616-.164-1.106-.49-1.47-.318-.364-.77-.546-1.358-.546-.551 0-1.004.191-1.358.574-.355.383-.551.863-.588 1.442h3.794Zm6.739 4.116c-.541 0-1.003-.08-1.386-.238a1.868 1.868 0 0 1-.868-.784c-.205-.355-.308-.821-.308-1.4v-3.444h-1.904v-.994h1.904v-2.226h1.204v2.226h2.198v.994h-2.198v3.304c0 .355.052.64.154.854a.97.97 0 0 0 .504.476c.234.093.551.14.952.14.196 0 .43-.023.7-.07v1.064a5.389 5.389 0 0 1-.952.098Zm9.531-5.866h-1.82v-.994h1.82v-.896c0-.737.22-1.316.658-1.736.448-.43 1.055-.644 1.82-.644.159 0 .322.014.49.042.178.019.327.047.448.084v1.036a7.488 7.488 0 0 0-.714-.056c-.541 0-.928.117-1.162.35-.224.233-.336.579-.336 1.036v.784h2.17v.994h-2.17v5.754h-1.204v-5.754Zm5.573-.994h1.204v1.274c.196-.43.504-.784.924-1.064.42-.28.956-.42 1.61-.42.186 0 .354.014.504.042v1.176a4.909 4.909 0 0 0-.602-.042c-.542 0-.994.089-1.358.266a1.81 1.81 0 0 0-.812.798c-.178.345-.266.77-.266 1.274v3.444h-1.204v-6.748Zm8.873 6.958c-.644 0-1.218-.15-1.722-.448a3.067 3.067 0 0 1-1.176-1.26c-.28-.55-.42-1.18-.42-1.89 0-.69.14-1.307.42-1.848a3.05 3.05 0 0 1 1.176-1.274c.504-.308 1.078-.462 1.722-.462.634 0 1.204.154 1.708.462a3.05 3.05 0 0 1 1.176 1.274c.289.541.434 1.157.434 1.848 0 .71-.145 1.34-.434 1.89-.28.541-.672.961-1.176 1.26a3.288 3.288 0 0 1-1.708.448Zm0-.938c.42 0 .784-.112 1.092-.336.317-.224.56-.537.728-.938.168-.401.252-.863.252-1.386 0-.793-.192-1.428-.574-1.904-.374-.485-.873-.728-1.498-.728-.411 0-.775.112-1.092.336-.318.215-.56.523-.728.924-.168.392-.252.85-.252 1.372 0 .523.084.985.252 1.386.168.401.406.714.714.938.317.224.686.336 1.106.336Zm4.803-6.02h1.148v.91c.168-.355.396-.63.686-.826a1.759 1.759 0 0 1 1.022-.308c.392 0 .732.107 1.022.322.298.215.522.532.672.952a2.41 2.41 0 0 1 .77-.938 1.978 1.978 0 0 1 1.148-.336c.401 0 .746.093 1.036.28.298.187.527.471.686.854.158.373.238.835.238 1.386v4.452h-1.148v-4.27c0-.579-.089-1.013-.266-1.302-.168-.299-.458-.448-.868-.448-.299 0-.551.084-.756.252-.206.168-.36.397-.462.686-.094.28-.14.593-.14.938v4.144h-1.148v-4.2c0-.597-.094-1.05-.28-1.358-.178-.308-.467-.462-.868-.462-.29 0-.537.089-.742.266a1.563 1.563 0 0 0-.448.7c-.103.29-.154.611-.154.966v4.088h-1.148v-6.748Zm-69.675 15.994h-1.82v-.994h1.82v-.896c0-.737.219-1.316.658-1.736.448-.43 1.055-.644 1.82-.644.159 0 .322.014.49.042.177.019.327.047.448.084v1.036a7.488 7.488 0 0 0-.714-.056c-.541 0-.929.117-1.162.35-.224.233-.336.579-.336 1.036v.784h2.17v.994h-2.17v5.754h-1.204v-5.754Zm8.052 5.964c-.682 0-1.27-.14-1.764-.42a2.844 2.844 0 0 1-1.134-1.232c-.262-.541-.392-1.195-.392-1.96 0-.681.14-1.293.42-1.834a3.23 3.23 0 0 1 1.148-1.274 2.99 2.99 0 0 1 1.638-.462c.662 0 1.227.15 1.694.448.466.29.821.705 1.064 1.246.252.532.378 1.162.378 1.89v.238h-5.124c.009.504.102.938.28 1.302.186.364.434.644.742.84.317.187.672.28 1.064.28.457 0 .844-.103 1.162-.308.326-.215.527-.565.602-1.05h1.204c-.047.42-.192.803-.434 1.148-.234.345-.57.625-1.008.84-.43.205-.943.308-1.54.308Zm1.764-4.214c0-.616-.164-1.106-.49-1.47-.318-.364-.77-.546-1.358-.546-.551 0-1.004.191-1.358.574-.355.383-.551.863-.588 1.442h3.794Zm6.066 4.214c-.681 0-1.269-.14-1.764-.42a2.856 2.856 0 0 1-1.134-1.232c-.261-.541-.392-1.195-.392-1.96 0-.681.14-1.293.42-1.834.28-.541.663-.966 1.148-1.274a2.996 2.996 0 0 1 1.638-.462c.663 0 1.228.15 1.694.448.467.29.822.705 1.064 1.246.252.532.378 1.162.378 1.89v.238h-5.124c.01.504.103.938.28 1.302.187.364.434.644.742.84.318.187.672.28 1.064.28.458 0 .845-.103 1.162-.308.327-.215.528-.565.602-1.05h1.204c-.046.42-.191.803-.434 1.148-.233.345-.569.625-1.008.84-.429.205-.942.308-1.54.308Zm1.764-4.214c0-.616-.163-1.106-.49-1.47-.317-.364-.77-.546-1.358-.546-.55 0-1.003.191-1.358.574-.354.383-.55.863-.588 1.442h3.794Zm5.689 4.214c-.597 0-1.129-.14-1.596-.42-.466-.28-.835-.69-1.106-1.232-.27-.541-.406-1.185-.406-1.932 0-.681.131-1.293.392-1.834.262-.55.626-.98 1.092-1.288.476-.317 1.027-.476 1.652-.476.514 0 .962.117 1.344.35.383.224.658.485.826.784V47.16h1.204v9.8h-1.204v-.937c-.186.327-.476.602-.868.826a2.722 2.722 0 0 1-1.33.322Zm.21-.938a1.81 1.81 0 0 0 1.064-.322 2.2 2.2 0 0 0 .742-.938c.178-.401.266-.868.266-1.4 0-.803-.191-1.442-.574-1.918a1.83 1.83 0 0 0-1.498-.714c-.401 0-.76.112-1.078.336-.308.215-.55.523-.728.924-.168.401-.252.863-.252 1.386 0 .523.084.985.252 1.386.168.401.406.714.714.938.318.215.682.322 1.092.322Z"/><rect width="112" height="74" x="344" y="83" fill="#F0E9E1" rx="7.477"/><path fill="#00378A" d="M362.649 99.163h1.568l3.542 9.8h-1.372l-2.66-7.686a1.862 1.862 0 0 1-.056-.14 3.653 3.653 0 0 0-.042-.154 55.522 55.522 0 0 0-.224-.658l-.098.322a4.408 4.408 0 0 1-.112.322l-.098.308-2.66 7.686h-1.316l3.528-9.8Zm-1.526 5.824h4.606v1.064h-4.606v-1.064Zm10.411 4.186c-.597 0-1.129-.14-1.596-.42-.467-.28-.835-.691-1.106-1.232-.271-.541-.406-1.185-.406-1.932 0-.681.131-1.293.392-1.834.261-.551.625-.98 1.092-1.288.476-.317 1.027-.476 1.652-.476.513 0 .961.117 1.344.35.383.224.658.485.826.784v-3.962h1.204v9.8h-1.204v-.938c-.187.327-.476.602-.868.826a2.718 2.718 0 0 1-1.33.322Zm.21-.938c.401 0 .756-.107 1.064-.322a2.21 2.21 0 0 0 .742-.938c.177-.401.266-.868.266-1.4 0-.803-.191-1.442-.574-1.918a1.832 1.832 0 0 0-1.498-.714c-.401 0-.761.112-1.078.336-.308.215-.551.523-.728.924-.168.401-.252.863-.252 1.386 0 .523.084.985.252 1.386.168.401.406.714.714.938.317.215.681.322 1.092.322Zm7.921.938c-.597 0-1.129-.14-1.596-.42-.466-.28-.835-.691-1.106-1.232-.27-.541-.406-1.185-.406-1.932 0-.681.131-1.293.392-1.834.262-.551.626-.98 1.092-1.288.476-.317 1.027-.476 1.652-.476.514 0 .962.117 1.344.35.383.224.658.485.826.784v-3.962h1.204v9.8h-1.204v-.938c-.186.327-.476.602-.868.826a2.718 2.718 0 0 1-1.33.322Zm.21-.938a1.81 1.81 0 0 0 1.064-.322c.318-.224.565-.537.742-.938.178-.401.266-.868.266-1.4 0-.803-.191-1.442-.574-1.918a1.83 1.83 0 0 0-1.498-.714c-.401 0-.76.112-1.078.336-.308.215-.55.523-.728.924-.168.401-.252.863-.252 1.386 0 .523.084.985.252 1.386.168.401.406.714.714.938.318.215.682.322 1.092.322Zm14.643.84c-.541 0-1.003-.079-1.386-.238a1.866 1.866 0 0 1-.868-.784c-.205-.355-.308-.821-.308-1.4v-3.444h-1.904v-.994h1.904v-2.226h1.204v2.226h2.198v.994h-2.198v3.304c0 .355.052.639.154.854a.97.97 0 0 0 .504.476c.234.093.551.14.952.14.196 0 .43-.023.7-.07v1.064c-.14.028-.294.051-.462.07a4.353 4.353 0 0 1-.49.028Zm5.543.098c-.644 0-1.218-.149-1.722-.448a3.072 3.072 0 0 1-1.176-1.26c-.28-.551-.42-1.181-.42-1.89 0-.691.14-1.307.42-1.848.28-.551.672-.975 1.176-1.274.504-.308 1.078-.462 1.722-.462.635 0 1.204.154 1.708.462.504.299.896.723 1.176 1.274.29.541.434 1.157.434 1.848 0 .709-.144 1.339-.434 1.89-.28.541-.672.961-1.176 1.26a3.282 3.282 0 0 1-1.708.448Zm0-.938c.42 0 .784-.112 1.092-.336a2.11 2.11 0 0 0 .728-.938c.168-.401.252-.863.252-1.386 0-.793-.191-1.428-.574-1.904-.373-.485-.872-.728-1.498-.728-.41 0-.774.112-1.092.336-.317.215-.56.523-.728.924-.168.392-.252.849-.252 1.372 0 .523.084.985.252 1.386.168.401.406.714.714.938a1.87 1.87 0 0 0 1.106.336Zm-36.586 16.938c-.467 0-.896-.103-1.288-.308a2.523 2.523 0 0 1-.924-.84v.938h-1.19v-9.8h1.19v3.962c.233-.327.541-.597.924-.812a2.662 2.662 0 0 1 1.302-.322c.644 0 1.199.154 1.666.462a2.99 2.99 0 0 1 1.078 1.288c.252.541.378 1.157.378 1.848 0 .7-.131 1.321-.392 1.862a2.977 2.977 0 0 1-1.092 1.274c-.476.299-1.027.448-1.652.448Zm-.196-.938c.411 0 .77-.112 1.078-.336.317-.224.56-.532.728-.924.177-.401.266-.863.266-1.386 0-.513-.089-.971-.266-1.372a2.118 2.118 0 0 0-.728-.938 1.783 1.783 0 0 0-1.078-.336c-.401 0-.761.107-1.078.322-.317.205-.565.509-.742.91-.168.401-.252.868-.252 1.4 0 .523.089.985.266 1.386.177.401.42.714.728.938.317.224.677.336 1.078.336Zm7.137.938a2.84 2.84 0 0 1-1.204-.252 2.038 2.038 0 0 1-.84-.714 1.967 1.967 0 0 1-.308-1.092c0-.616.21-1.092.63-1.428.42-.345.966-.569 1.638-.672l1.498-.224c.252-.037.43-.107.532-.21.112-.112.168-.271.168-.476 0-.364-.13-.649-.392-.854-.252-.205-.592-.308-1.022-.308-.513 0-.91.126-1.19.378-.28.243-.429.579-.448 1.008h-1.204c.019-.42.14-.807.364-1.162.224-.355.542-.639.952-.854.42-.215.901-.322 1.442-.322.579 0 1.064.103 1.456.308.402.196.705.485.91.868.206.373.308.821.308 1.344v4.452h-1.148v-.91c-.168.345-.443.621-.826.826-.373.196-.812.294-1.316.294Zm.168-.938c.364 0 .691-.075.98-.224.299-.159.532-.373.7-.644.178-.28.266-.597.266-.952v-.994c-.037.056-.121.107-.252.154-.13.047-.308.093-.532.14l-.98.182c-.448.084-.802.224-1.064.42-.261.187-.392.453-.392.798 0 .336.117.607.35.812.243.205.551.308.924.308Zm7.976.938c-.597 0-1.111-.103-1.54-.308a2.35 2.35 0 0 1-.994-.854 2.398 2.398 0 0 1-.364-1.274h1.176c.019.467.177.835.476 1.106.308.261.728.392 1.26.392.467 0 .84-.098 1.12-.294.289-.205.434-.476.434-.812a.825.825 0 0 0-.294-.658c-.187-.177-.481-.303-.882-.378l-1.022-.196c-.644-.121-1.148-.345-1.512-.672a1.601 1.601 0 0 1-.546-1.246c0-.383.112-.723.336-1.022.224-.299.532-.532.924-.7a3.33 3.33 0 0 1 1.358-.266c.541 0 1.008.089 1.4.266.392.168.695.415.91.742.224.317.35.705.378 1.162h-1.19c-.047-.401-.21-.705-.49-.91-.271-.205-.635-.308-1.092-.308-.401 0-.723.089-.966.266a.826.826 0 0 0-.364.7c0 .261.093.467.28.616.187.149.476.261.868.336l1.05.196c.644.121 1.143.341 1.498.658.364.317.546.747.546 1.288 0 .401-.112.77-.336 1.106-.224.327-.546.588-.966.784-.411.187-.896.28-1.456.28Zm5.012-10.01h1.204v5.922c.168-.187.345-.364.532-.532l2.296-2.338h1.512l-4.34 4.242v2.506h-1.204v-9.8Zm1.652 6.566.826-.798 3.458 4.032h-1.638l-2.646-3.234Zm8.403 3.444c-.682 0-1.27-.14-1.764-.42a2.846 2.846 0 0 1-1.134-1.232c-.262-.541-.392-1.195-.392-1.96 0-.681.14-1.293.42-1.834a3.23 3.23 0 0 1 1.148-1.274 2.99 2.99 0 0 1 1.638-.462c.662 0 1.227.149 1.694.448.466.289.821.705 1.064 1.246.252.532.378 1.162.378 1.89v.238h-5.124c.009.504.102.938.28 1.302.186.364.434.644.742.84.317.187.672.28 1.064.28.457 0 .844-.103 1.162-.308.326-.215.527-.565.602-1.05h1.204c-.047.42-.192.803-.434 1.148-.234.345-.57.625-1.008.84-.43.205-.943.308-1.54.308Zm1.764-4.214c0-.616-.164-1.106-.49-1.47-.318-.364-.77-.546-1.358-.546-.551 0-1.004.191-1.358.574-.355.383-.551.863-.588 1.442h3.794Zm6.739 4.116c-.541 0-1.003-.079-1.386-.238a1.866 1.866 0 0 1-.868-.784c-.205-.355-.308-.821-.308-1.4v-3.444h-1.904v-.994h1.904v-2.226h1.204v2.226h2.198v.994h-2.198v3.304c0 .355.052.639.154.854a.97.97 0 0 0 .504.476c.234.093.551.14.952.14.196 0 .43-.023.7-.07v1.064c-.14.028-.294.051-.462.07a4.353 4.353 0 0 1-.49.028Z"/><rect width="112.15" height="157.009" x="515.887" y="-.002" fill="#F0E9E1" rx="7.477"/><path fill="#00378A" d="M535.6 26.17c-.812 0-1.531-.204-2.156-.615-.616-.42-1.097-1.013-1.442-1.778-.345-.775-.518-1.68-.518-2.716 0-1.045.173-1.95.518-2.716.345-.775.826-1.367 1.442-1.778.625-.42 1.344-.63 2.156-.63s1.526.21 2.142.63c.625.41 1.106 1.003 1.442 1.778.345.765.518 1.67.518 2.716 0 1.036-.173 1.941-.518 2.716-.345.765-.831 1.358-1.456 1.778-.616.41-1.325.616-2.128.616Zm0-1.063a2.29 2.29 0 0 0 1.442-.476c.42-.327.742-.793.966-1.4.233-.616.35-1.34.35-2.17 0-.84-.117-1.563-.35-2.17-.224-.607-.546-1.069-.966-1.386a2.248 2.248 0 0 0-1.442-.49c-.551 0-1.036.163-1.456.49-.42.317-.747.78-.98 1.386-.224.607-.336 1.33-.336 2.17 0 .83.112 1.554.336 2.17.233.607.555 1.073.966 1.4.42.317.91.476 1.47.476Zm5.722-5.894h1.19v.924c.214-.327.522-.597.924-.812.401-.224.84-.336 1.316-.336.634 0 1.185.154 1.652.462.476.308.835.733 1.078 1.274.252.541.378 1.157.378 1.848 0 .71-.131 1.335-.392 1.876-.262.541-.63.966-1.106 1.274-.476.299-1.027.448-1.652.448-.476 0-.906-.103-1.288-.308a2.39 2.39 0 0 1-.91-.84v3.85h-1.19v-9.66Zm3.22 6.02c.41 0 .77-.112 1.078-.336.317-.224.56-.537.728-.938.168-.401.252-.863.252-1.386 0-.513-.084-.966-.252-1.358a2.116 2.116 0 0 0-.728-.938 1.785 1.785 0 0 0-1.078-.336c-.402 0-.761.107-1.078.322-.318.215-.565.523-.742.924-.178.392-.266.854-.266 1.386 0 .523.088.985.266 1.386.177.401.42.714.728.938.317.224.681.336 1.092.336Zm7.935.938c-.681 0-1.269-.14-1.764-.42a2.856 2.856 0 0 1-1.134-1.232c-.261-.541-.392-1.195-.392-1.96 0-.681.14-1.293.42-1.834.28-.541.663-.966 1.148-1.274a2.99 2.99 0 0 1 1.638-.462c.663 0 1.227.15 1.694.448.467.29.821.705 1.064 1.246.252.532.378 1.162.378 1.89v.238h-5.124c.009.504.103.938.28 1.302.187.364.434.644.742.84.317.187.672.28 1.064.28.457 0 .845-.103 1.162-.308.327-.215.527-.565.602-1.05h1.204c-.047.42-.191.803-.434 1.148-.233.345-.569.625-1.008.84-.429.205-.943.308-1.54.308Zm1.764-4.214c0-.616-.163-1.106-.49-1.47-.317-.364-.77-.546-1.358-.546-.551 0-1.003.191-1.358.574-.355.383-.551.863-.588 1.442h3.794Zm3.113-2.744h1.204v.91c.186-.317.471-.583.854-.798a2.523 2.523 0 0 1 1.274-.336c.522 0 .97.107 1.344.322.382.215.672.532.868.952.205.41.308.9.308 1.47v4.228h-1.204v-4.074c0-.653-.122-1.139-.364-1.456-.234-.327-.621-.49-1.162-.49a1.84 1.84 0 0 0-1.022.28c-.29.177-.514.415-.672.714-.15.299-.224.63-.224.994v4.032h-1.204v-6.748ZM535.362 42.17c-.467 0-.896-.103-1.288-.308a2.516 2.516 0 0 1-.924-.84v.938h-1.19v-9.8h1.19v3.963c.233-.327.541-.597.924-.812a2.666 2.666 0 0 1 1.302-.322c.644 0 1.199.154 1.666.462a2.99 2.99 0 0 1 1.078 1.288c.252.541.378 1.157.378 1.848 0 .7-.131 1.32-.392 1.862a2.975 2.975 0 0 1-1.092 1.274c-.476.299-1.027.448-1.652.448Zm-.196-.938c.411 0 .77-.112 1.078-.336.317-.224.56-.532.728-.924.177-.401.266-.863.266-1.386 0-.513-.089-.97-.266-1.372a2.116 2.116 0 0 0-.728-.938 1.783 1.783 0 0 0-1.078-.336 1.88 1.88 0 0 0-1.078.322c-.317.205-.565.509-.742.91-.168.401-.252.868-.252 1.4 0 .523.089.985.266 1.386.177.401.42.714.728.938.317.224.677.336 1.078.336Zm7.137.938c-.439 0-.84-.084-1.204-.252a2.025 2.025 0 0 1-.84-.714 1.968 1.968 0 0 1-.308-1.092c0-.616.21-1.092.63-1.428.42-.345.966-.57 1.638-.672l1.498-.224c.252-.037.429-.107.532-.21.112-.112.168-.27.168-.476 0-.364-.131-.649-.392-.854-.252-.205-.593-.308-1.022-.308-.513 0-.91.126-1.19.378-.28.243-.429.579-.448 1.008h-1.204c.019-.42.14-.807.364-1.162.224-.355.541-.64.952-.854.42-.215.901-.322 1.442-.322.579 0 1.064.103 1.456.308a2 2 0 0 1 .91.868c.205.373.308.821.308 1.344v4.452h-1.148v-.91c-.168.345-.443.62-.826.826-.373.196-.812.294-1.316.294Zm.168-.938c.364 0 .691-.075.98-.224.299-.159.532-.373.7-.644.177-.28.266-.597.266-.952v-.994c-.037.056-.121.107-.252.154a4.186 4.186 0 0 1-.532.14l-.98.182c-.448.084-.803.224-1.064.42-.261.187-.392.453-.392.798 0 .336.117.607.35.812.243.205.551.308.924.308Zm7.976.938c-.598 0-1.111-.103-1.54-.308a2.346 2.346 0 0 1-.994-.854c-.234-.364-.355-.789-.364-1.274h1.176c.018.467.177.835.476 1.106.308.261.728.392 1.26.392.466 0 .84-.098 1.12-.294.289-.205.434-.476.434-.812 0-.27-.098-.49-.294-.658-.187-.177-.481-.303-.882-.378l-1.022-.196c-.644-.121-1.148-.345-1.512-.672a1.6 1.6 0 0 1-.546-1.246c0-.383.112-.723.336-1.022.224-.299.532-.532.924-.7a3.326 3.326 0 0 1 1.358-.266c.541 0 1.008.089 1.4.266a2 2 0 0 1 .91.742c.224.317.35.705.378 1.162h-1.19c-.047-.401-.21-.705-.49-.91-.271-.205-.635-.308-1.092-.308-.402 0-.724.089-.966.266a.827.827 0 0 0-.364.7c0 .261.093.467.28.616.186.15.476.261.868.336l1.05.196c.644.121 1.143.34 1.498.658.364.317.546.747.546 1.288 0 .401-.112.77-.336 1.106-.224.327-.546.588-.966.784-.411.187-.896.28-1.456.28Zm5.012-10.01h1.204v5.922c.168-.187.345-.364.532-.532l2.296-2.338h1.512l-4.34 4.242v2.506h-1.204v-9.8Zm1.652 6.566.826-.798 3.458 4.032h-1.638l-2.646-3.234Zm8.402 3.444c-.681 0-1.269-.14-1.764-.42a2.856 2.856 0 0 1-1.134-1.232c-.261-.541-.392-1.195-.392-1.96 0-.681.14-1.293.42-1.834.28-.541.663-.966 1.148-1.274a2.996 2.996 0 0 1 1.638-.462c.663 0 1.228.15 1.694.448.467.29.822.705 1.064 1.246.252.532.378 1.162.378 1.89v.238h-5.124c.01.504.103.938.28 1.302.187.364.434.644.742.84.318.187.672.28 1.064.28.458 0 .845-.103 1.162-.308.327-.215.528-.565.602-1.05h1.204c-.046.42-.191.803-.434 1.148-.233.345-.569.625-1.008.84-.429.205-.942.308-1.54.308Zm1.764-4.214c0-.616-.163-1.106-.49-1.47-.317-.364-.77-.546-1.358-.546-.55 0-1.003.191-1.358.574-.354.383-.55.863-.588 1.442h3.794Zm6.74 4.116c-.541 0-1.003-.08-1.386-.238a1.863 1.863 0 0 1-.868-.784c-.205-.355-.308-.821-.308-1.4v-3.444h-1.904v-.994h1.904v-2.226h1.204v2.226h2.198v.994h-2.198v3.304c0 .355.051.64.154.854a.97.97 0 0 0 .504.476c.233.093.551.14.952.14.196 0 .429-.023.7-.07v1.064a5.389 5.389 0 0 1-.952.098Z"/><rect width="112.15" height="157.009" x="687.85" y="-.002" fill="#F0E9E1" rx="7.477"/><path fill="#00378A" d="M704.035 16.16h3.57c.625 0 1.185.09 1.68.267.504.168.91.462 1.218.882.308.41.462.957.462 1.638 0 .681-.15 1.227-.448 1.638-.299.41-.7.705-1.204.882-.495.168-1.064.252-1.708.252h-2.296v4.242h-1.274v-9.8Zm3.556 4.495c.718 0 1.241-.15 1.568-.448.336-.299.504-.719.504-1.26 0-.55-.168-.975-.504-1.274-.327-.299-.85-.448-1.568-.448h-2.282v3.43h2.282Zm7.269 5.516c-.541 0-.999-.103-1.372-.308a2.044 2.044 0 0 1-.826-.924c-.187-.401-.28-.891-.28-1.47v-4.256h1.204v4.004c0 .672.121 1.176.364 1.512.252.336.658.504 1.218.504.373 0 .691-.093.952-.28.261-.187.457-.453.588-.798.14-.355.21-.775.21-1.26v-3.682h1.19v6.748h-1.176v-.938c-.159.355-.429.635-.812.84a2.568 2.568 0 0 1-1.26.308Zm5.897-6.958h1.204v1.274c.196-.43.504-.784.924-1.064.42-.28.957-.42 1.61-.42.187 0 .355.014.504.042v1.176a4.896 4.896 0 0 0-.602-.042c-.541 0-.994.089-1.358.266a1.82 1.82 0 0 0-.812.798c-.177.345-.266.77-.266 1.274v3.444h-1.204v-6.748Zm9.027 6.958a3.52 3.52 0 0 1-1.694-.406c-.504-.27-.905-.677-1.204-1.218-.298-.541-.448-1.2-.448-1.974 0-.7.15-1.32.448-1.862a3.235 3.235 0 0 1 1.218-1.26 3.383 3.383 0 0 1 1.75-.462c.523 0 .999.103 1.428.308.43.205.775.495 1.036.868.262.373.416.812.462 1.316h-1.246c-.056-.457-.233-.826-.532-1.106-.298-.29-.695-.434-1.19-.434-.42 0-.793.117-1.12.35a2.216 2.216 0 0 0-.742.938c-.177.401-.266.85-.266 1.344 0 .532.089.999.266 1.4.187.401.444.714.77.938.327.215.705.322 1.134.322.495 0 .896-.135 1.204-.406.318-.27.509-.649.574-1.134h1.19a2.74 2.74 0 0 1-.448 1.302 2.39 2.39 0 0 1-1.022.868c-.438.205-.961.308-1.568.308Zm4.864-10.01h1.19v3.962c.196-.327.48-.597.854-.812a2.557 2.557 0 0 1 1.274-.322c.522 0 .975.107 1.358.322.382.215.672.532.868.952.205.41.308.9.308 1.47v4.228h-1.204v-4.074c0-.653-.122-1.139-.364-1.456-.243-.327-.64-.49-1.19-.49-.392 0-.733.089-1.022.266-.28.177-.5.42-.658.728-.15.299-.224.63-.224.994v4.032h-1.19v-9.8Zm9.984 10.01c-.439 0-.84-.084-1.204-.252a2.025 2.025 0 0 1-.84-.714 1.96 1.96 0 0 1-.308-1.092c0-.616.21-1.092.63-1.428.42-.345.966-.57 1.638-.672l1.498-.224c.252-.037.429-.107.532-.21.112-.112.168-.27.168-.476 0-.364-.131-.649-.392-.854-.252-.205-.593-.308-1.022-.308-.514 0-.91.126-1.19.378-.28.243-.43.579-.448 1.008h-1.204c.018-.42.14-.807.364-1.162.224-.355.541-.64.952-.854.42-.215.9-.322 1.442-.322.578 0 1.064.103 1.456.308.401.196.704.485.91.868.205.373.308.821.308 1.344v4.452h-1.148v-.91c-.168.345-.444.62-.826.826-.374.196-.812.294-1.316.294Zm.168-.938c.364 0 .69-.075.98-.224a1.8 1.8 0 0 0 .7-.644c.177-.28.266-.597.266-.952v-.994c-.038.056-.122.107-.252.154a4.186 4.186 0 0 1-.532.14l-.98.182c-.448.084-.803.224-1.064.42-.262.187-.392.453-.392.798 0 .336.116.607.35.812.242.205.55.308.924.308Zm7.975.938c-.597 0-1.11-.103-1.54-.308a2.358 2.358 0 0 1-.994-.854c-.233-.364-.354-.789-.364-1.274h1.176c.019.467.178.835.476 1.106.308.261.728.392 1.26.392.467 0 .84-.098 1.12-.294.29-.205.434-.476.434-.812 0-.27-.098-.49-.294-.658-.186-.177-.48-.303-.882-.378l-1.022-.196c-.644-.121-1.148-.345-1.512-.672a1.6 1.6 0 0 1-.546-1.246c0-.383.112-.723.336-1.022.224-.299.532-.532.924-.7a3.33 3.33 0 0 1 1.358-.266c.542 0 1.008.089 1.4.266.392.168.696.415.91.742.224.317.35.705.378 1.162h-1.19c-.046-.401-.21-.705-.49-.91-.27-.205-.634-.308-1.092-.308-.401 0-.723.089-.966.266a.829.829 0 0 0-.364.7c0 .261.094.467.28.616.187.15.476.261.868.336l1.05.196c.644.121 1.144.34 1.498.658.364.317.546.747.546 1.288 0 .401-.112.77-.336 1.106-.224.327-.546.588-.966.784-.41.187-.896.28-1.456.28Zm7.742 0c-.681 0-1.269-.14-1.764-.42a2.856 2.856 0 0 1-1.134-1.232c-.261-.541-.392-1.195-.392-1.96 0-.681.14-1.293.42-1.834.28-.541.663-.966 1.148-1.274a2.996 2.996 0 0 1 1.638-.462c.663 0 1.228.15 1.694.448.467.29.822.705 1.064 1.246.252.532.378 1.162.378 1.89v.238h-5.124c.01.504.103.938.28 1.302.187.364.434.644.742.84.318.187.672.28 1.064.28.458 0 .845-.103 1.162-.308.327-.215.528-.565.602-1.05h1.204c-.046.42-.191.803-.434 1.148-.233.345-.569.625-1.008.84-.429.205-.942.308-1.54.308Zm1.764-4.214c0-.616-.163-1.106-.49-1.47-.317-.364-.77-.546-1.358-.546-.55 0-1.003.191-1.358.574-.354.383-.55.863-.588 1.442h3.794Z"/><rect width="112.15" height="73.916" x="171.963" y="83" fill="#F0E9E1" rx="7.477"/><path fill="#00378A" d="M187.224 99.163h1.386l2.31 7.126c.065.187.117.35.154.49l.168.476.112.336c.065-.196.126-.387.182-.574.056-.168.093-.289.112-.364.028-.084.07-.205.126-.364l2.31-7.126h1.344l-3.36 9.8h-1.54l-3.304-9.8Zm10.905 3.052h1.204v6.748h-1.204v-6.748Zm-1.61 5.754h4.2v.994h-4.2v-.994Zm.294-5.754h1.918v.994h-1.918v-.994Zm1.12-2.758h1.456v1.526h-1.456v-1.526Zm7.462 9.716c-.681 0-1.269-.14-1.764-.42a2.858 2.858 0 0 1-1.134-1.232c-.261-.541-.392-1.195-.392-1.96 0-.681.14-1.293.42-1.834.28-.541.663-.966 1.148-1.274a2.99 2.99 0 0 1 1.638-.462c.663 0 1.227.149 1.694.448.467.289.821.705 1.064 1.246.252.532.378 1.162.378 1.89v.238h-5.124c.009.504.103.938.28 1.302.187.364.434.644.742.84.317.187.672.28 1.064.28.457 0 .845-.103 1.162-.308.327-.215.527-.565.602-1.05h1.204c-.047.42-.191.803-.434 1.148-.233.345-.569.625-1.008.84-.429.205-.943.308-1.54.308Zm1.764-4.214c0-.616-.163-1.106-.49-1.47-.317-.364-.77-.546-1.358-.546-.551 0-1.003.191-1.358.574-.355.383-.551.863-.588 1.442h3.794Zm2.232-2.744h1.246l1.12 4.9c.056.215.093.392.112.532a9.8 9.8 0 0 0 .154-.532l1.218-4.116h1.358l1.232 4.116a.548.548 0 0 1 .042.126c.037.121.074.247.112.378.028-.131.051-.233.07-.308.018-.075.032-.145.042-.21l1.148-4.886h1.148l-1.764 6.748h-1.33l-1.26-4.298a6.784 6.784 0 0 0-.084-.308 14.405 14.405 0 0 1-.056-.196 3.034 3.034 0 0 1-.07.21 3.653 3.653 0 0 0-.042.154c-.01.028-.024.075-.042.14l-1.274 4.298h-1.316l-1.764-6.748Zm-21.355 16h1.19v.924c.215-.327.523-.597.924-.812.401-.224.84-.336 1.316-.336.635 0 1.185.154 1.652.462.476.308.835.733 1.078 1.274.252.541.378 1.157.378 1.848 0 .709-.131 1.335-.392 1.876a3.07 3.07 0 0 1-1.106 1.274c-.476.299-1.027.448-1.652.448-.476 0-.905-.103-1.288-.308a2.385 2.385 0 0 1-.91-.84v3.85h-1.19v-9.66Zm3.22 6.02c.411 0 .77-.112 1.078-.336.317-.224.56-.537.728-.938.168-.401.252-.863.252-1.386 0-.513-.084-.966-.252-1.358a2.118 2.118 0 0 0-.728-.938 1.783 1.783 0 0 0-1.078-.336c-.401 0-.761.107-1.078.322-.317.215-.565.523-.742.924-.177.392-.266.854-.266 1.386 0 .523.089.985.266 1.386.177.401.42.714.728.938.317.224.681.336 1.092.336Zm5.401-6.02h1.204v1.274a2.53 2.53 0 0 1 .924-1.064c.42-.28.957-.42 1.61-.42.187 0 .355.014.504.042v1.176a4.896 4.896 0 0 0-.602-.042c-.541 0-.994.089-1.358.266a1.816 1.816 0 0 0-.812.798c-.177.345-.266.77-.266 1.274v3.444h-1.204v-6.748Zm8.873 6.958c-.644 0-1.218-.149-1.722-.448a3.072 3.072 0 0 1-1.176-1.26c-.28-.551-.42-1.181-.42-1.89 0-.691.14-1.307.42-1.848.28-.551.672-.975 1.176-1.274.504-.308 1.078-.462 1.722-.462.635 0 1.204.154 1.708.462.504.299.896.723 1.176 1.274.289.541.434 1.157.434 1.848 0 .709-.145 1.339-.434 1.89-.28.541-.672.961-1.176 1.26a3.282 3.282 0 0 1-1.708.448Zm0-.938c.42 0 .784-.112 1.092-.336.317-.224.56-.537.728-.938.168-.401.252-.863.252-1.386 0-.793-.191-1.428-.574-1.904-.373-.485-.873-.728-1.498-.728-.411 0-.775.112-1.092.336-.317.215-.56.523-.728.924-.168.392-.252.849-.252 1.372 0 .523.084.985.252 1.386.168.401.406.714.714.938.317.224.686.336 1.106.336Zm7.673.938c-.597 0-1.129-.14-1.596-.42-.467-.28-.835-.691-1.106-1.232-.271-.541-.406-1.185-.406-1.932 0-.681.131-1.293.392-1.834.261-.551.625-.98 1.092-1.288.476-.317 1.027-.476 1.652-.476.513 0 .961.117 1.344.35.383.224.658.485.826.784v-3.962h1.204v9.8h-1.204v-.938c-.187.327-.476.602-.868.826a2.718 2.718 0 0 1-1.33.322Zm.21-.938c.401 0 .756-.107 1.064-.322a2.21 2.21 0 0 0 .742-.938c.177-.401.266-.868.266-1.4 0-.803-.191-1.442-.574-1.918a1.832 1.832 0 0 0-1.498-.714c-.401 0-.761.112-1.078.336-.308.215-.551.523-.728.924-.168.401-.252.863-.252 1.386 0 .523.084.985.252 1.386.168.401.406.714.714.938.317.215.681.322 1.092.322Zm7.754.938c-.542 0-.999-.103-1.372-.308a2.043 2.043 0 0 1-.826-.924c-.187-.401-.28-.891-.28-1.47v-4.256h1.204v4.004c0 .672.121 1.176.364 1.512.252.336.658.504 1.218.504.373 0 .69-.093.952-.28.261-.187.457-.453.588-.798.14-.355.21-.775.21-1.26v-3.682h1.19v6.748h-1.176v-.938c-.159.355-.43.635-.812.84a2.578 2.578 0 0 1-1.26.308Zm8.515 0a3.52 3.52 0 0 1-1.694-.406 2.975 2.975 0 0 1-1.204-1.218c-.299-.541-.448-1.199-.448-1.974 0-.7.149-1.321.448-1.862a3.239 3.239 0 0 1 1.218-1.26 3.383 3.383 0 0 1 1.75-.462c.523 0 .999.103 1.428.308.429.205.775.495 1.036.868s.415.812.462 1.316h-1.246c-.056-.457-.233-.826-.532-1.106-.299-.289-.695-.434-1.19-.434-.42 0-.793.117-1.12.35a2.21 2.21 0 0 0-.742.938 3.294 3.294 0 0 0-.266 1.344c0 .532.089.999.266 1.4.187.401.443.714.77.938.327.215.705.322 1.134.322.495 0 .896-.135 1.204-.406.317-.271.509-.649.574-1.134h1.19a2.748 2.748 0 0 1-.448 1.302 2.397 2.397 0 0 1-1.022.868c-.439.205-.961.308-1.568.308Zm8.433-.098c-.541 0-1.003-.079-1.386-.238a1.866 1.866 0 0 1-.868-.784c-.205-.355-.308-.821-.308-1.4v-3.444h-1.904v-.994h1.904v-2.226h1.204v2.226h2.198v.994h-2.198v3.304c0 .355.052.639.154.854a.97.97 0 0 0 .504.476c.234.093.551.14.952.14.196 0 .43-.023.7-.07v1.064c-.14.028-.294.051-.462.07a4.353 4.353 0 0 1-.49.028Zm-50.079 8.14h1.19v.924c.215-.327.523-.597.924-.812.401-.224.84-.336 1.316-.336.635 0 1.185.154 1.652.462.476.308.835.733 1.078 1.274.252.541.378 1.157.378 1.848 0 .709-.131 1.335-.392 1.876a3.07 3.07 0 0 1-1.106 1.274c-.476.299-1.027.448-1.652.448-.476 0-.905-.103-1.288-.308a2.385 2.385 0 0 1-.91-.84v3.85h-1.19v-9.66Zm3.22 6.02c.411 0 .77-.112 1.078-.336.317-.224.56-.537.728-.938.168-.401.252-.863.252-1.386 0-.513-.084-.966-.252-1.358a2.118 2.118 0 0 0-.728-.938 1.783 1.783 0 0 0-1.078-.336c-.401 0-.761.107-1.078.322-.317.215-.565.523-.742.924-.177.392-.266.854-.266 1.386 0 .523.089.985.266 1.386.177.401.42.714.728.938.317.224.681.336 1.092.336Zm7.123.938a2.84 2.84 0 0 1-1.204-.252 2.038 2.038 0 0 1-.84-.714 1.967 1.967 0 0 1-.308-1.092c0-.616.21-1.092.63-1.428.42-.345.966-.569 1.638-.672l1.498-.224c.252-.037.43-.107.532-.21.112-.112.168-.271.168-.476 0-.364-.13-.649-.392-.854-.252-.205-.592-.308-1.022-.308-.513 0-.91.126-1.19.378-.28.243-.429.579-.448 1.008h-1.204c.019-.42.14-.807.364-1.162.224-.355.542-.639.952-.854.42-.215.901-.322 1.442-.322.579 0 1.064.103 1.456.308.402.196.705.485.91.868.206.373.308.821.308 1.344v4.452h-1.148v-.91c-.168.345-.443.621-.826.826-.373.196-.812.294-1.316.294Zm.168-.938c.364 0 .691-.075.98-.224.299-.159.532-.373.7-.644.178-.28.266-.597.266-.952v-.994c-.037.056-.121.107-.252.154-.13.047-.308.093-.532.14l-.98.182c-.448.084-.802.224-1.064.42-.261.187-.392.453-.392.798 0 .336.117.607.35.812.243.205.551.308.924.308Zm8.13 3.85c-.588 0-1.106-.103-1.554-.308a2.392 2.392 0 0 1-1.022-.868c-.243-.373-.364-.807-.364-1.302h1.19c0 .457.158.826.476 1.106.317.289.746.434 1.288.434.653 0 1.152-.177 1.498-.532.354-.345.532-.868.532-1.568v-1.274c-.178.345-.467.621-.868.826-.402.196-.85.294-1.344.294-.616 0-1.158-.14-1.624-.42a2.807 2.807 0 0 1-1.064-1.19c-.252-.523-.378-1.129-.378-1.82 0-.681.135-1.283.406-1.806.27-.532.639-.943 1.106-1.232a3.015 3.015 0 0 1 1.596-.434c.513 0 .952.112 1.316.336.364.215.648.481.854.798v-.91h1.204v6.412c0 1.157-.271 2.021-.812 2.59-.542.579-1.354.868-2.436.868Zm.07-4.13c.401 0 .756-.103 1.064-.308.317-.205.56-.495.728-.868.177-.383.266-.821.266-1.316a3.07 3.07 0 0 0-.266-1.302 2.045 2.045 0 0 0-.728-.896 1.855 1.855 0 0 0-1.064-.322c-.402 0-.761.107-1.078.322a2.072 2.072 0 0 0-.728.882 3.245 3.245 0 0 0-.252 1.316c0 .495.084.933.252 1.316.177.373.42.663.728.868.317.205.676.308 1.078.308Zm8.201 1.218c-.681 0-1.269-.14-1.764-.42a2.858 2.858 0 0 1-1.134-1.232c-.261-.541-.392-1.195-.392-1.96 0-.681.14-1.293.42-1.834.28-.541.663-.966 1.148-1.274a2.996 2.996 0 0 1 1.638-.462c.663 0 1.228.149 1.694.448.467.289.822.705 1.064 1.246.252.532.378 1.162.378 1.89v.238h-5.124c.01.504.103.938.28 1.302.187.364.434.644.742.84.318.187.672.28 1.064.28.458 0 .845-.103 1.162-.308.327-.215.528-.565.602-1.05h1.204c-.046.42-.191.803-.434 1.148-.233.345-.569.625-1.008.84-.429.205-.942.308-1.54.308Zm1.764-4.214c0-.616-.163-1.106-.49-1.47-.317-.364-.77-.546-1.358-.546-.55 0-1.003.191-1.358.574-.354.383-.55.863-.588 1.442h3.794Z"/><path fill="#00AD30" d="M110.155 120a1.993 1.993 0 1 0 3.987.001 1.993 1.993 0 0 0-3.987-.001Zm59.813 0a1.994 1.994 0 1 0 3.987 0 1.994 1.994 0 0 0-3.987 0Zm-57.82.374h59.814v-.748h-59.814v.748Z"/><path fill="#00378A" d="M282.12 120a1.993 1.993 0 1 0 3.987.001 1.993 1.993 0 0 0-3.987-.001Zm59.813 0a1.993 1.993 0 1 0 3.987.001 1.993 1.993 0 0 0-3.987-.001Zm-57.82.374h59.813v-.748h-59.813v.748Zm341.93-41.87a1.994 1.994 0 1 0 3.988 0 1.994 1.994 0 0 0-3.988 0Zm59.813 0a1.994 1.994 0 1 0 3.988 0 1.994 1.994 0 0 0-3.988 0Zm-57.819.374h59.813v-.748h-59.813v.748ZM110.155 37a1.993 1.993 0 1 0 3.986.001 1.993 1.993 0 0 0-3.986-.001Zm59.813 0a1.993 1.993 0 1 0 3.987 0 1.993 1.993 0 0 0-3.987 0Zm-57.82.374h59.814v-.748h-59.814v.748ZM282.12 37a1.993 1.993 0 1 0 3.986.001A1.993 1.993 0 0 0 282.12 37Zm231.775 41.504a1.994 1.994 0 1 0 3.988-.001 1.994 1.994 0 0 0-3.988 0Zm-229.782-41.13h173.084v-.748H284.113v.748ZM464.3 44.477v26.55h.748v-26.55h-.748Zm7.851 34.4h43.738v-.747h-43.738v.747Zm-7.851-7.85a7.85 7.85 0 0 0 7.851 7.85v-.747a7.103 7.103 0 0 1-7.103-7.103h-.748Zm-7.103-33.653a7.103 7.103 0 0 1 7.103 7.103h.748a7.85 7.85 0 0 0-7.851-7.85v.747Z"/><path fill="#00378A" d="M454.08 120a1.994 1.994 0 1 1 3.989 0 1.994 1.994 0 0 1-3.989 0Zm59.814-41.498a1.993 1.993 0 1 1 3.986 0 1.993 1.993 0 0 1-3.986 0Zm-57.82 41.124h.748v.748h-.748v-.748Zm7.851-7.103V85.979h.747v26.544h-.747Zm7.85-34.394h44.112v.747h-44.112v-.748Zm-7.85 7.85a7.85 7.85 0 0 1 7.85-7.85v.747a7.103 7.103 0 0 0-7.103 7.103h-.747Zm-7.103 33.647a7.103 7.103 0 0 0 7.103-7.103h.747a7.85 7.85 0 0 1-7.85 7.851v-.748Z"/><path fill="#00AD30" d="M125.444 108.066h1.022v6.846h-1.022v-6.846Zm-2.8 2.926h6.636v.994h-6.636v-.994Zm11.288 4.9c-.7 0-1.302-.126-1.806-.378a2.83 2.83 0 0 1-1.176-1.064c-.271-.458-.406-.99-.406-1.596h1.246c0 .597.191 1.087.574 1.47.382.382.905.574 1.568.574a2.71 2.71 0 0 0 1.134-.224c.336-.159.597-.383.784-.672.186-.299.28-.649.28-1.05 0-.392-.098-.724-.294-.994a1.717 1.717 0 0 0-.77-.63 2.588 2.588 0 0 0-1.092-.224h-.574v-1.078h.588c.354 0 .672-.066.952-.196.289-.14.518-.341.686-.602.168-.262.252-.574.252-.938 0-.514-.168-.91-.504-1.19-.336-.29-.789-.434-1.358-.434-.654 0-1.153.172-1.498.518-.346.336-.528.816-.546 1.442h-1.26c.018-.588.158-1.106.42-1.554a2.595 2.595 0 0 1 1.134-1.036c.494-.252 1.087-.378 1.778-.378.588 0 1.115.112 1.582.336.476.214.849.518 1.12.91.27.392.406.835.406 1.33 0 .513-.154.975-.462 1.386-.299.401-.738.7-1.316.896.662.177 1.166.485 1.512.924.345.429.518.947.518 1.554 0 .56-.15 1.059-.448 1.498-.29.438-.7.784-1.232 1.036-.523.242-1.12.364-1.792.364Zm6.213 1.372c.261-.075.452-.21.574-.406.13-.196.196-.518.196-.966v-.21h-.798v-1.722h1.694v1.89c0 .7-.15 1.227-.448 1.582-.29.364-.696.583-1.218.658v-.826Zm7.754-1.372c-.663 0-1.242-.117-1.736-.35-.495-.243-.878-.574-1.148-.994-.262-.43-.392-.924-.392-1.484h1.26c0 .56.172 1.008.518 1.344.354.326.84.49 1.456.49.466 0 .868-.098 1.204-.294.336-.196.592-.476.77-.84.177-.364.266-.789.266-1.274 0-.71-.187-1.279-.56-1.708-.364-.43-.868-.644-1.512-.644-.486 0-.92.135-1.302.406-.383.27-.64.569-.77.896h-1.176l.714-5.558h5.334v1.12h-4.41l-.322 2.478-.028.224c-.01.112-.019.196-.028.252-.01.056-.019.14-.028.252.252-.327.583-.584.994-.77.41-.196.849-.294 1.316-.294.588 0 1.115.144 1.582.434.466.28.826.672 1.078 1.176.261.494.392 1.045.392 1.652 0 .681-.145 1.288-.434 1.82a3.17 3.17 0 0 1-1.218 1.232c-.523.289-1.13.434-1.82.434Zm6.327-5.544a1.94 1.94 0 0 1-1.022-.28 2.066 2.066 0 0 1-.714-.826 2.78 2.78 0 0 1-.252-1.204c0-.448.084-.845.252-1.19a1.97 1.97 0 0 1 .714-.798 1.866 1.866 0 0 1 1.022-.294c.383 0 .723.098 1.022.294.299.186.537.452.714.798.177.336.266.732.266 1.19 0 .448-.089.849-.266 1.204-.177.354-.415.63-.714.826-.299.186-.639.28-1.022.28Zm0-.896a.76.76 0 0 0 .49-.168c.149-.112.266-.276.35-.49.093-.215.14-.467.14-.756 0-.439-.093-.784-.28-1.036-.177-.252-.411-.378-.7-.378a.818.818 0 0 0-.504.168c-.14.112-.252.275-.336.49a2.064 2.064 0 0 0-.126.756c0 .429.089.774.266 1.036.187.252.42.378.7.378Zm5.026-3.57h1.134l-6.412 9.8h-1.134l6.412-9.8Zm-.238 9.912a1.94 1.94 0 0 1-1.022-.28 2.066 2.066 0 0 1-.714-.826 2.78 2.78 0 0 1-.252-1.204c0-.458.084-.854.252-1.19a1.97 1.97 0 0 1 .714-.798 1.866 1.866 0 0 1 1.022-.294c.373 0 .709.098 1.008.294.308.186.546.452.714.798.177.336.266.732.266 1.19 0 .448-.089.849-.266 1.204-.168.354-.406.63-.714.826a1.87 1.87 0 0 1-1.008.28Zm0-.896a.799.799 0 0 0 .49-.168c.149-.112.266-.276.35-.49.093-.215.14-.467.14-.756 0-.439-.093-.784-.28-1.036-.187-.252-.42-.378-.7-.378a.818.818 0 0 0-.504.168c-.14.112-.257.275-.35.49a2.064 2.064 0 0 0-.126.756c0 .438.089.784.266 1.036.187.252.425.378.714.378Z"/></g><defs><clipPath id="a"><path fill="#fff" d="M0 0h800v157H0z"/></clipPath></defs></svg>